Facade-BoldItalic.ufo
<glyph name="dollar" format="2">
  <advance width="750"/>
  <unicode hex="0024"/>
  <outline>
    <contour>
      <point x="333" y="-20" type="curve" smooth="yes"/>
      <point x="506" y="-20"/>
      <point x="649" y="117"/>
      <point x="649" y="283" type="curve" smooth="yes"/>
      <point x="649" y="370"/>
      <point x="610" y="436"/>
      <point x="520" y="503" type="curve" smooth="yes"/>
      <point x="427" y="573" type="line" smooth="yes"/>
      <point x="379" y="609"/>
      <point x="362" y="633"/>
      <point x="362" y="665" type="curve" smooth="yes"/>
      <point x="362" y="720"/>
      <point x="408" y="760"/>
      <point x="470" y="760" type="curve" smooth="yes"/>
      <point x="544" y="760"/>
      <point x="621" y="704"/>
      <point x="662" y="622" type="curve"/>
      <point x="755" y="809" type="line"/>
      <point x="691" y="877"/>
      <point x="587" y="920"/>
      <point x="487" y="920" type="curve" smooth="yes"/>
      <point x="318" y="920"/>
      <point x="187" y="798"/>
      <point x="187" y="641" type="curve" smooth="yes"/>
      <point x="187" y="562"/>
      <point x="220" y="508"/>
      <point x="315" y="432" type="curve" smooth="yes"/>
      <point x="407" y="359" type="line" smooth="yes"/>
      <point x="454" y="322"/>
      <point x="474" y="291"/>
      <point x="474" y="253" type="curve" smooth="yes"/>
      <point x="474" y="191"/>
      <point x="418" y="142"/>
      <point x="348" y="142" type="curve" smooth="yes"/>
      <point x="262" y="142"/>
      <point x="171" y="217"/>
      <point x="145" y="309" type="curve"/>
      <point x="48" y="118" type="line"/>
      <point x="103" y="37"/>
      <point x="221" y="-20"/>
    </contour>
    <contour>
      <point x="220" y="-120" type="line"/>
      <point x="328" y="-120" type="line"/>
      <point x="373" y="60" type="line"/>
      <point x="265" y="60" type="line"/>
    </contour>
    <contour>
      <point x="457" y="840" type="line"/>
      <point x="565" y="840" type="line"/>
      <point x="602" y="990" type="line"/>
      <point x="494" y="990" type="line"/>
    </contour>
  </outline>
</glyph>
<glyph name="asterisk" format="2">
  <advance width="600"/>
  <unicode hex="002A"/>
  <outline>
    <contour>
      <point x="234" y="411" type="line"/>
      <point x="364" y="556" type="line"/>
      <point x="416" y="388" type="line"/>
      <point x="550" y="458" type="line"/>
      <point x="462" y="608" type="line"/>
      <point x="650" y="624" type="line"/>
      <point x="638" y="764" type="line"/>
      <point x="456" y="710" type="line"/>
      <point x="520" y="900" type="line"/>
      <point x="376" y="900" type="line"/>
      <point x="352" y="723" type="line"/>
      <point x="205" y="817" type="line"/>
      <point x="128" y="688" type="line"/>
      <point x="296" y="628" type="line"/>
      <point x="142" y="508" type="line"/>
    </contour>
  </outline>
</glyph>
<glyph name="comma" format="2">
  <advance width="290"/>
  <unicode hex="002C"/>
  <outline>
    <contour>
      <point x="-125" y="-150" type="curve"/>
      <point x="50" y="-150" type="line"/>
      <point x="135" y="-57"/>
      <point x="193" y="54"/>
      <point x="224" y="180" type="curve"/>
      <point x="56" y="180" type="line"/>
      <point x="21" y="39"/>
      <point x="-47" y="-68"/>
    </contour>
  </outline>
</glyph>
<glyph name="hyphen" format="2">
  <advance width="380"/>
  <unicode hex="002D"/>
  <outline>
    <contour>
      <point x="12" y="228" type="line"/>
      <point x="332" y="228" type="line"/>
      <point x="368" y="372" type="line"/>
      <point x="48" y="372" type="line"/>
    </contour>
  </outline>
</glyph>
<glyph name="zero" format="2">
  <advance width="750"/>
  <unicode hex="0030"/>
  <outline>
    <contour>
      <point x="321" y="-20" type="curve" smooth="yes"/>
      <point x="546" y="-20"/>
      <point x="756" y="268"/>
      <point x="756" y="576" type="curve" smooth="yes"/>
      <point x="756" y="786"/>
      <point x="656" y="920"/>
      <point x="501" y="920" type="curve" smooth="yes"/>
      <point x="276" y="920"/>
      <point x="70" y="634"/>
      <point x="70" y="323" type="curve" smooth="yes"/>
      <point x="70" y="112"/>
      <point x="166" y="-20"/>
    </contour>
    <contour>
      <point x="348" y="142" type="curve" smooth="yes"/>
      <point x="286" y="142"/>
      <point x="248" y="211"/>
      <point x="248" y="324" type="curve" smooth="yes"/>
      <point x="248" y="531"/>
      <point x="372" y="758"/>
      <point x="484" y="758" type="curve" smooth="yes"/>
      <point x="544" y="758"/>
      <point x="578" y="695"/>
      <point x="578" y="583" type="curve" smooth="yes"/>
      <point x="578" y="371"/>
      <point x="459" y="142"/>
    </contour>
  </outline>
</glyph>
<glyph name="three" format="2">
  <advance width="750"/>
  <unicode hex="0033"/>
  <outline>
    <contour>
      <point x="284" y="-20" type="curve" smooth="yes"/>
      <point x="473" y="-20"/>
      <point x="652" y="142"/>
      <point x="652" y="328" type="curve" smooth="yes"/>
      <point x="652" y="430"/>
      <point x="597" y="517"/>
      <point x="512" y="562" type="curve"/>
      <point x="779" y="900" type="line"/>
      <point x="257" y="900" type="line"/>
      <point x="219" y="744" type="line"/>
      <point x="535" y="744" type="line"/>
      <point x="513" y="790" type="line"/>
      <point x="241" y="441" type="line"/>
      <point x="274" y="453"/>
      <point x="304" y="458"/>
      <point x="334" y="458" type="curve" smooth="yes"/>
      <point x="431" y="458"/>
      <point x="481" y="398"/>
      <point x="481" y="322" type="curve" smooth="yes"/>
      <point x="481" y="226"/>
      <point x="399" y="142"/>
      <point x="300" y="142" type="curve" smooth="yes"/>
      <point x="205" y="142"/>
      <point x="142" y="225"/>
      <point x="142" y="318" type="curve"/>
      <point x="10" y="152" type="line"/>
      <point x="58" y="40"/>
      <point x="169" y="-20"/>
    </contour>
  </outline>
</glyph>
<glyph name="eight" format="2">
  <advance width="750"/>
  <unicode hex="0038"/>
  <outline>
    <contour>
      <point x="336" y="-20" type="curve" smooth="yes"/>
      <point x="513" y="-20"/>
      <point x="696" y="138"/>
      <point x="696" y="330" type="curve" smooth="yes"/>
      <point x="696" y="426"/>
      <point x="648" y="512"/>
      <point x="572" y="561" type="curve"/>
      <point x="583" y="498" type="line"/>
      <point x="688" y="557"/>
      <point x="715" y="655"/>
      <point x="715" y="717" type="curve" smooth="yes"/>
      <point x="715" y="836"/>
      <point x="619" y="920"/>
      <point x="498" y="920" type="curve" smooth="yes"/>
      <point x="351" y="920"/>
      <point x="229" y="797"/>
      <point x="229" y="662" type="curve" smooth="yes"/>
      <point x="229" y="613"/>
      <point x="247" y="571"/>
      <point x="276" y="536" type="curve"/>
      <point x="315" y="591" type="line"/>
      <point x="166" y="547"/>
      <point x="52" y="412"/>
      <point x="52" y="258" type="curve" smooth="yes"/>
      <point x="52" y="99"/>
      <point x="180" y="-20"/>
    </contour>
    <contour>
      <point x="355" y="138" type="curve" smooth="yes"/>
      <point x="276" y="138"/>
      <point x="220" y="200"/>
      <point x="220" y="275" type="curve" smooth="yes"/>
      <point x="220" y="363"/>
      <point x="298" y="450"/>
      <point x="393" y="450" type="curve" smooth="yes"/>
      <point x="471" y="450"/>
      <point x="528" y="389"/>
      <point x="528" y="313" type="curve" smooth="yes"/>
      <point x="528" y="223"/>
      <point x="447" y="138"/>
    </contour>
    <contour>
      <point x="458" y="590" type="curve" smooth="yes"/>
      <point x="411" y="590"/>
      <point x="378" y="624"/>
      <point x="378" y="669" type="curve" smooth="yes"/>
      <point x="378" y="724"/>
      <point x="427" y="769"/>
      <point x="480" y="769" type="curve" smooth="yes"/>
      <point x="528" y="769"/>
      <point x="561" y="733"/>
      <point x="561" y="691" type="curve" smooth="yes"/>
      <point x="561" y="634"/>
      <point x="510" y="590"/>
    </contour>
  </outline>
</glyph>
<glyph name="nine" format="2">
  <advance width="750"/>
  <unicode hex="0039"/>
  <outline>
    <contour>
      <point x="139" y="0" type="line"/>
      <point x="341" y="0" type="line"/>
      <point x="671" y="426" type="line" smooth="yes"/>
      <point x="730" y="502"/>
      <point x="758" y="574"/>
      <point x="758" y="647" type="curve" smooth="yes"/>
      <point x="758" y="802"/>
      <point x="633" y="920"/>
      <point x="470" y="920" type="curve" smooth="yes"/>
      <point x="281" y="920"/>
      <point x="116" y="758"/>
      <point x="116" y="574" type="curve" smooth="yes"/>
      <point x="116" y="426"/>
      <point x="232" y="306"/>
      <point x="375" y="306" type="curve" smooth="yes"/>
      <point x="418" y="306"/>
      <point x="451" y="317"/>
      <point x="489" y="342" type="curve"/>
      <point x="422" y="361" type="line"/>
    </contour>
    <contour>
      <point x="419" y="456" type="curve" smooth="yes"/>
      <point x="345" y="456"/>
      <point x="288" y="513"/>
      <point x="288" y="588" type="curve" smooth="yes"/>
      <point x="288" y="676"/>
      <point x="368" y="758"/>
      <point x="455" y="758" type="curve" smooth="yes"/>
      <point x="528" y="758"/>
      <point x="585" y="700"/>
      <point x="585" y="624" type="curve" smooth="yes"/>
      <point x="585" y="535"/>
      <point x="507" y="456"/>
    </contour>
  </outline>
</glyph>
<glyph name="less" format="2">
  <advance width="750"/>
  <unicode hex="003C"/>
  <outline>
    <contour>
      <point x="635" y="128" type="line"/>
      <point x="672" y="275" type="line"/>
      <point x="460" y="390" type="line" smooth="yes"/>
      <point x="428" y="408"/>
      <point x="389" y="425"/>
      <point x="352" y="441" type="curve"/>
      <point x="397" y="458"/>
      <point x="444" y="475"/>
      <point x="486" y="493" type="curve" smooth="yes"/>
      <point x="754" y="609" type="line"/>
      <point x="795" y="774" type="line"/>
      <point x="61" y="452" type="line"/>
    </contour>
  </outline>
</glyph>
<glyph name="greater" format="2">
  <advance width="750"/>
  <unicode hex="003E"/>
  <outline>
    <contour>
      <point x="29" y="128" type="line"/>
      <point x="763" y="450" type="line"/>
      <point x="189" y="774" type="line"/>
      <point x="152" y="627" type="line"/>
      <point x="364" y="512" type="line" smooth="yes"/>
      <point x="396" y="494"/>
      <point x="435" y="477"/>
      <point x="472" y="461" type="curve"/>
      <point x="427" y="444"/>
      <point x="380" y="427"/>
      <point x="338" y="409" type="curve" smooth="yes"/>
      <point x="70" y="293" type="line"/>
    </contour>
  </outline>
</glyph>
<glyph name="C" format="2">
  <advance width="870"/>
  <unicode hex="0043"/>
  <anchor x="419" y="0" name="bottom"/>
  <anchor x="641" y="900" name="top"/>
  <outline>
    <contour>
      <point x="513" y="-18" type="curve" smooth="yes"/>
      <point x="620" y="-18"/>
      <point x="722" y="18"/>
      <point x="808" y="78" type="curve"/>
      <point x="808" y="327" type="line"/>
      <point x="751" y="228"/>
      <point x="646" y="156"/>
      <point x="533" y="156" type="curve" smooth="yes"/>
      <point x="391" y="156"/>
      <point x="282" y="268"/>
      <point x="282" y="413" type="curve" smooth="yes"/>
      <point x="282" y="586"/>
      <point x="433" y="744"/>
      <point x="602" y="744" type="curve" smooth="yes"/>
      <point x="702" y="744"/>
      <point x="784" y="690"/>
      <point x="825" y="608" type="curve"/>
      <point x="918" y="801" type="line"/>
      <point x="843" y="874"/>
      <point x="739" y="918"/>
      <point x="621" y="918" type="curve" smooth="yes"/>
      <point x="342" y="918"/>
      <point x="92" y="670"/>
      <point x="92" y="396" type="curve" smooth="yes"/>
      <point x="92" y="163"/>
      <point x="274" y="-18"/>
    </contour>
  </outline>
</glyph>
<glyph name="F" format="2">
  <advance width="600"/>
  <unicode hex="0046"/>
  <outline>
    <contour>
      <point x="21" y="0" type="line"/>
      <point x="195" y="0" type="line"/>
      <point x="309" y="456" type="line"/>
      <point x="586" y="456" type="line"/>
      <point x="623" y="606" type="line"/>
      <point x="347" y="606" type="line"/>
      <point x="383" y="750" type="line"/>
      <point x="689" y="750" type="line"/>
      <point x="726" y="900" type="line"/>
      <point x="246" y="900" type="line"/>
    </contour>
  </outline>
</glyph>
<glyph name="K" format="2">
  <advance width="800"/>
  <unicode hex="004B"/>
  <anchor x="363" y="0" name="bottom"/>
  <anchor x="547" y="900" name="top"/>
  <outline>
    <contour>
      <point x="534" y="0" type="line"/>
      <point x="729" y="0" type="line"/>
      <point x="510" y="621" type="line"/>
      <point x="503" y="540" type="line"/>
      <point x="859" y="900" type="line"/>
      <point x="649" y="900" type="line"/>
      <point x="335" y="579" type="line"/>
    </contour>
    <contour>
      <point x="21" y="0" type="line"/>
      <point x="201" y="0" type="line"/>
      <point x="426" y="900" type="line"/>
      <point x="246" y="900" type="line"/>
    </contour>
  </outline>
</glyph>
<glyph name="P" format="2">
  <advance width="740"/>
  <unicode hex="0050"/>
  <outline>
    <contour>
      <point x="178" y="289" type="line"/>
      <point x="425" y="289" type="line" smooth="yes"/>
      <point x="617" y="289"/>
      <point x="784" y="450"/>
      <point x="784" y="629" type="curve" smooth="yes"/>
      <point x="784" y="782"/>
      <point x="660" y="900"/>
      <point x="498" y="900" type="curve" smooth="yes"/>
      <point x="329" y="900" type="line"/>
      <point x="290" y="744" type="line"/>
      <point x="456" y="744" type="line" smooth="yes"/>
      <point x="547" y="744"/>
      <point x="604" y="690"/>
      <point x="604" y="615" type="curve" smooth="yes"/>
      <point x="604" y="524"/>
      <point x="524" y="445"/>
      <point x="420" y="445" type="curve" smooth="yes"/>
      <point x="217" y="445" type="line"/>
    </contour>
    <contour>
      <point x="21" y="0" type="line"/>
      <point x="195" y="0" type="line"/>
      <point x="420" y="900" type="line"/>
      <point x="246" y="900" type="line"/>
    </contour>
  </outline>
</glyph>
<glyph name="Q" format="2">
  <advance width="1060"/>
  <unicode hex="0051"/>
  <outline>
    <contour>
      <point x="513" y="-18" type="curve" smooth="yes"/>
      <point x="793" y="-18"/>
      <point x="1042" y="230"/>
      <point x="1042" y="503" type="curve" smooth="yes"/>
      <point x="1042" y="736"/>
      <point x="860" y="918"/>
      <point x="621" y="918" type="curve" smooth="yes"/>
      <point x="342" y="918"/>
      <point x="92" y="670"/>
      <point x="92" y="396" type="curve" smooth="yes"/>
      <point x="92" y="163"/>
      <point x="274" y="-18"/>
    </contour>
    <contour>
      <point x="533" y="156" type="curve" smooth="yes"/>
      <point x="391" y="156"/>
      <point x="282" y="268"/>
      <point x="282" y="413" type="curve" smooth="yes"/>
      <point x="282" y="586"/>
      <point x="433" y="744"/>
      <point x="602" y="744" type="curve" smooth="yes"/>
      <point x="745" y="744"/>
      <point x="852" y="634"/>
      <point x="852" y="489" type="curve" smooth="yes"/>
      <point x="852" y="315"/>
      <point x="702" y="156"/>
    </contour>
    <contour>
      <point x="745" y="-30" type="line"/>
      <point x="935" y="-30" type="line"/>
      <point x="654" y="450" type="line"/>
      <point x="466" y="450" type="line"/>
      <point x="665" y="111" type="line"/>
      <point x="667" y="105" type="line"/>
    </contour>
  </outline>
</glyph>
<glyph name="U" format="2">
  <advance width="800"/>
  <unicode hex="0055"/>
  <anchor x="327" y="0" name="bottom"/>
  <anchor x="357" y="0" name="ogonek"/>
  <anchor x="550" y="900" name="top"/>
  <anchor x="504" y="720" name="top-vertical"/>
  <anchor x="785" y="900" name="topright"/>
  <outline>
    <contour>
      <point x="366" y="-20" type="curve" smooth="yes"/>
      <point x="546" y="-20"/>
      <point x="675" y="88"/>
      <point x="720" y="268" type="curve" smooth="yes"/>
      <point x="878" y="900" type="line"/>
      <point x="698" y="900" type="line"/>
      <point x="546" y="290" type="line" smooth="yes"/>
      <point x="525" y="207"/>
      <point x="465" y="153"/>
      <point x="385" y="153" type="curve" smooth="yes"/>
      <point x="294" y="153"/>
      <point x="240" y="225"/>
      <point x="266" y="331" type="curve" smooth="yes"/>
      <point x="408" y="900" type="line"/>
      <point x="222" y="900" type="line"/>
      <point x="83" y="345" type="line" smooth="yes"/>
      <point x="31" y="137"/>
      <point x="153" y="-20"/>
    </contour>
  </outline>
</glyph>
<glyph name="W" format="2">
  <advance width="1220"/>
  <unicode hex="0057"/>
  <anchor x="539" y="0" name="bottom"/>
  <anchor x="764" y="900" name="top"/>
  <outline>
    <contour>
      <point x="294" y="-32" type="line"/>
      <point x="591" y="413" type="line" smooth="yes"/>
      <point x="615" y="449"/>
      <point x="640" y="485"/>
      <point x="671" y="541" type="curve"/>
      <point x="674" y="485"/>
      <point x="681" y="448"/>
      <point x="687" y="412" type="curve" smooth="yes"/>
      <point x="762" y="-32" type="line"/>
      <point x="1364" y="900" type="line"/>
      <point x="1171" y="900" type="line"/>
      <point x="925" y="516" type="line" smooth="yes"/>
      <point x="902" y="480"/>
      <point x="880" y="444"/>
      <point x="849" y="388" type="curve"/>
      <point x="846" y="444"/>
      <point x="836" y="480"/>
      <point x="830" y="516" type="curve" smooth="yes"/>
      <point x="759" y="930" type="line"/>
      <point x="484" y="516" type="line" smooth="yes"/>
      <point x="460" y="480"/>
      <point x="435" y="444"/>
      <point x="404" y="388" type="curve"/>
      <point x="401" y="444"/>
      <point x="395" y="480"/>
      <point x="390" y="516" type="curve" smooth="yes"/>
      <point x="334" y="900" type="line"/>
      <point x="156" y="900" type="line"/>
    </contour>
  </outline>
</glyph>
<glyph name="Y" format="2">
  <advance width="710"/>
  <unicode hex="0059"/>
  <anchor x="281" y="0" name="bottom"/>
  <anchor x="503" y="900" name="top"/>
  <anchor x="180" y="900" name="topleft"/>
  <outline>
    <contour>
      <point x="190" y="0" type="line"/>
      <point x="370" y="0" type="line"/>
      <point x="477" y="426" type="line"/>
      <point x="854" y="900" type="line"/>
      <point x="652" y="901" type="line"/>
      <point x="495" y="698" type="line" smooth="yes"/>
      <point x="465" y="659"/>
      <point x="437" y="624"/>
      <point x="398" y="557" type="curve"/>
      <point x="427" y="557" type="line"/>
      <point x="424" y="623"/>
      <point x="413" y="660"/>
      <point x="402" y="698" type="curve" smooth="yes"/>
      <point x="346" y="900" type="line"/>
      <point x="156" y="900" type="line"/>
      <point x="297" y="426" type="line"/>
    </contour>
  </outline>
</glyph>
<glyph name="Z" format="2">
  <advance width="680"/>
  <unicode hex="005A"/>
  <anchor x="249" y="0" name="bottom"/>
  <anchor x="369" y="450" name="center"/>
  <anchor x="504" y="900" name="top"/>
  <outline>
    <contour>
      <point x="-57" y="0" type="line"/>
      <point x="554" y="0" type="line"/>
      <point x="594" y="162" type="line"/>
      <point x="158" y="162" type="line"/>
      <point x="175" y="56" type="line"/>
      <point x="800" y="900" type="line"/>
      <point x="213" y="900" type="line"/>
      <point x="173" y="738" type="line"/>
      <point x="573" y="738" type="line"/>
      <point x="568" y="844" type="line"/>
    </contour>
  </outline>
</glyph>
<glyph name="bracketleft" format="2">
  <advance width="480"/>
  <unicode hex="005B"/>
  <outline>
    <contour>
      <point x="-30" y="-180" type="line"/>
      <point x="300" y="-180" type="line"/>
      <point x="332" y="-48" type="line"/>
      <point x="152" y="-48" type="line"/>
      <point x="373" y="828" type="line"/>
      <point x="553" y="828" type="line"/>
      <point x="585" y="960" type="line"/>
      <point x="255" y="960" type="line"/>
    </contour>
  </outline>
</glyph>
<glyph name="backslash" format="2">
  <advance width="540"/>
  <unicode hex="005C"/>
  <outline>
    <contour>
      <point x="362" y="-180" type="line"/>
      <point x="505" y="-180" type="line"/>
      <point x="229" y="960" type="line"/>
      <point x="85" y="960" type="line"/>
    </contour>
  </outline>
</glyph>
<glyph name="bracketright" format="2">
  <advance width="480"/>
  <unicode hex="005D"/>
  <outline>
    <contour>
      <point x="-60" y="-180" type="line"/>
      <point x="270" y="-180" type="line"/>
      <point x="555" y="960" type="line"/>
      <point x="225" y="960" type="line"/>
      <point x="193" y="828" type="line"/>
      <point x="373" y="828" type="line"/>
      <point x="152" y="-48" type="line"/>
      <point x="-28" y="-48" type="line"/>
    </contour>
  </outline>
</glyph>
<glyph name="underscore" format="2">
  <advance width="720"/>
  <unicode hex="005F"/>
  <outline>
    <contour>
      <point x="-130" y="-201" type="line"/>
      <point x="602" y="-201" type="line"/>
      <point x="634" y="-69" type="line"/>
      <point x="-98" y="-69" type="line"/>
    </contour>
  </outline>
</glyph>
<glyph name="e" format="2">
  <advance width="690"/>
  <unicode hex="0065"/>
  <anchor x="278" y="0" name="bottom"/>
  <anchor x="418" y="0" name="ogonek"/>
  <anchor x="426" y="600" name="top"/>
  <outline>
    <contour>
      <point x="340" y="-20" type="curve" smooth="yes"/>
      <point x="416" y="-20"/>
      <point x="489" y="5"/>
      <point x="539" y="44" type="curve"/>
      <point x="539" y="216" type="line"/>
      <point x="507" y="165"/>
      <point x="426" y="124"/>
      <point x="357" y="124" type="curve" smooth="yes"/>
      <point x="264" y="124"/>
      <point x="201" y="185"/>
      <point x="201" y="288" type="curve"/>
      <point x="189" y="288" type="line"/>
      <point x="189" y="397"/>
      <point x="274" y="481"/>
      <point x="382" y="481" type="curve" smooth="yes"/>
      <point x="483" y="481"/>
      <point x="532" y="411"/>
      <point x="509" y="300" type="curve"/>
      <point x="552" y="356" type="line"/>
      <point x="513" y="369"/>
      <point x="471" y="375"/>
      <point x="418" y="375" type="curve" smooth="yes"/>
      <point x="312" y="375" type="line" smooth="yes"/>
      <point x="271" y="375"/>
      <point x="229" y="369"/>
      <point x="172" y="355" type="curve"/>
      <point x="150" y="269" type="line"/>
      <point x="202" y="255"/>
      <point x="240" y="249"/>
      <point x="281" y="249" type="curve" smooth="yes"/>
      <point x="647" y="249" type="line"/>
      <point x="660" y="301" type="line" smooth="yes"/>
      <point x="705" y="482"/>
      <point x="598" y="620"/>
      <point x="411" y="620" type="curve" smooth="yes"/>
      <point x="208" y="620"/>
      <point x="36" y="457"/>
      <point x="36" y="264" type="curve" smooth="yes"/>
      <point x="36" y="102"/>
      <point x="165" y="-20"/>
    </contour>
  </outline>
</glyph>
<glyph name="k" format="2">
  <advance width="670"/>
  <unicode hex="006B"/>
  <anchor x="255" y="0" name="bottom"/>
  <anchor x="311" y="960" name="top"/>
  <outline>
    <contour>
      <point x="401" y="1" type="line"/>
      <point x="590" y="1" type="line"/>
      <point x="396" y="396" type="line"/>
      <point x="393" y="324" type="line"/>
      <point x="672" y="600" type="line"/>
      <point x="473" y="600" type="line"/>
      <point x="232" y="354" type="line"/>
    </contour>
    <contour>
      <point x="-9" y="0" type="line"/>
      <point x="165" y="0" type="line"/>
      <point x="405" y="960" type="line"/>
      <point x="231" y="960" type="line"/>
    </contour>
  </outline>
</glyph>
<glyph name="t" format="2">
  <advance width="450"/>
  <unicode hex="0074"/>
  <anchor x="145" y="0" name="bottom"/>
  <anchor x="218" y="300" name="center"/>
  <anchor x="345" y="800" name="top"/>
  <anchor x="470" y="1020" name="topright"/>
  <outline>
    <contour>
      <point x="58" y="0" type="line"/>
      <point x="232" y="0" type="line"/>
      <point x="370" y="549" type="line"/>
      <point x="367" y="549" type="line"/>
      <point x="429" y="800" type="line"/>
      <point x="261" y="800" type="line"/>
      <point x="199" y="550" type="line"/>
      <point x="196" y="550" type="line"/>
    </contour>
    <contour>
      <point x="65" y="462" type="line"/>
      <point x="467" y="462" type="line"/>
      <point x="501" y="600" type="line"/>
      <point x="99" y="600" type="line"/>
    </contour>
  </outline>
</glyph>
<glyph name="u" format="2">
  <advance width="700"/>
  <unicode hex="0075"/>
  <anchor x="273" y="0" name="bottom"/>
  <anchor x="487" y="0" name="ogonek"/>
  <anchor x="420" y="600" name="top"/>
  <anchor x="630" y="600" name="topright"/>
  <outline>
    <contour>
      <point x="231" y="-20" type="curve" smooth="yes"/>
      <point x="349" y="-20"/>
      <point x="463" y="62"/>
      <point x="505" y="233" type="curve"/>
      <point x="446" y="250" type="line"/>
      <point x="425" y="163"/>
      <point x="366" y="124"/>
      <point x="306" y="124" type="curve" smooth="yes"/>
      <point x="229" y="124"/>
      <point x="199" y="188"/>
      <point x="217" y="260" type="curve" smooth="yes"/>
      <point x="303" y="600" type="line"/>
      <point x="129" y="600" type="line"/>
      <point x="43" y="258" type="line" smooth="yes"/>
      <point x="8" y="118"/>
      <point x="69" y="-20"/>
    </contour>
    <contour>
      <point x="403" y="0" type="line"/>
      <point x="559" y="0" type="line"/>
      <point x="709" y="600" type="line"/>
      <point x="535" y="600" type="line"/>
      <point x="428" y="178" type="line"/>
      <point x="439" y="148" type="line"/>
    </contour>
  </outline>
</glyph>
<glyph name="v" format="2">
  <advance width="670"/>
  <unicode hex="0076"/>
  <outline>
    <contour>
      <point x="254" y="-30" type="line"/>
      <point x="739" y="600" type="line"/>
      <point x="542" y="600" type="line"/>
      <point x="400" y="407" type="line" smooth="yes"/>
      <point x="361" y="354"/>
      <point x="328" y="309"/>
      <point x="283" y="219" type="curve"/>
      <point x="333" y="219" type="line"/>
      <point x="332" y="309"/>
      <point x="321" y="354"/>
      <point x="308" y="407" type="curve" smooth="yes"/>
      <point x="262" y="600" type="line"/>
      <point x="81" y="600" type="line"/>
    </contour>
  </outline>
</glyph>
<glyph name="x" format="2">
  <advance width="640"/>
  <unicode hex="0078"/>
  <outline>
    <contour>
      <point x="-63" y="0" type="line"/>
      <point x="137" y="0" type="line"/>
      <point x="251" y="131" type="line" smooth="yes"/>
      <point x="291" y="177"/>
      <point x="332" y="228"/>
      <point x="365" y="282" type="curve"/>
      <point x="283" y="306" type="line"/>
      <point x="288" y="252"/>
      <point x="304" y="201"/>
      <point x="321" y="155" type="curve" smooth="yes"/>
      <point x="378" y="0" type="line"/>
      <point x="562" y="0" type="line"/>
      <point x="423" y="337" type="line"/>
      <point x="666" y="600" type="line"/>
      <point x="470" y="600" type="line"/>
      <point x="410" y="532" type="line" smooth="yes"/>
      <point x="370" y="487"/>
      <point x="331" y="436"/>
      <point x="297" y="382" type="curve"/>
      <point x="353" y="358" type="line"/>
      <point x="349" y="412"/>
      <point x="333" y="464"/>
      <point x="317" y="508" type="curve" smooth="yes"/>
      <point x="283" y="600" type="line"/>
      <point x="105" y="600" type="line"/>
      <point x="222" y="313" type="line"/>
    </contour>
  </outline>
</glyph>
<glyph name="braceright" format="2">
  <advance width="480"/>
  <unicode hex="007D"/>
  <outline>
    <contour>
      <point x="-34" y="-186" type="line"/>
      <point x="101" y="-186"/>
      <point x="250" y="-128"/>
      <point x="290" y="35" type="curve" smooth="yes"/>
      <point x="305" y="96"/>
      <point x="302" y="158"/>
      <point x="315" y="212" type="curve" smooth="yes"/>
      <point x="337" y="298"/>
      <point x="390" y="327"/>
      <point x="469" y="353" type="curve"/>
      <point x="407" y="398"/>
      <point x="371" y="438"/>
      <point x="393" y="523" type="curve" smooth="yes"/>
      <point x="406" y="577"/>
      <point x="439" y="635"/>
      <point x="454" y="695" type="curve" smooth="yes"/>
      <point x="494" y="859"/>
      <point x="383" y="949"/>
      <point x="248" y="966" type="curve"/>
      <point x="183" y="840" type="line"/>
      <point x="259" y="830"/>
      <point x="328" y="803"/>
      <point x="302" y="697" type="curve" smooth="yes"/>
      <point x="289" y="645"/>
      <point x="255" y="583"/>
      <point x="241" y="527" type="curve" smooth="yes"/>
      <point x="207" y="391"/>
      <point x="304" y="349"/>
      <point x="401" y="337" type="curve"/>
      <point x="413" y="385" type="line"/>
      <point x="316" y="397"/>
      <point x="205" y="381"/>
      <point x="172" y="245" type="curve" smooth="yes"/>
      <point x="158" y="189"/>
      <point x="159" y="123"/>
      <point x="147" y="70" type="curve" smooth="yes"/>
      <point x="120" y="-36"/>
      <point x="42" y="-54"/>
      <point x="-34" y="-54" type="curve"/>
    </contour>
  </outline>
</glyph>
<glyph name="yen" format="2">
  <advance width="750"/>
  <unicode hex="00A5"/>
  <anchor x="53" y="900" name="topleft"/>
  <outline>
    <contour>
      <point x="213" y="0" type="line"/>
      <point x="393" y="0" type="line"/>
      <point x="498" y="426" type="line"/>
      <point x="874" y="900" type="line"/>
      <point x="674" y="901" type="line"/>
      <point x="517" y="698" type="line" smooth="yes"/>
      <point x="487" y="659"/>
      <point x="459" y="624"/>
      <point x="420" y="557" type="curve"/>
      <point x="449" y="557" type="line"/>
      <point x="446" y="623"/>
      <point x="435" y="660"/>
      <point x="424" y="698" type="curve" smooth="yes"/>
      <point x="368" y="900" type="line"/>
      <point x="176" y="900" type="line"/>
      <point x="318" y="426" type="line"/>
    </contour>
    <contour>
      <point x="72" y="294" type="line"/>
      <point x="678" y="294" type="line"/>
      <point x="705" y="402" type="line"/>
      <point x="99" y="402" type="line"/>
    </contour>
    <contour>
      <point x="123" y="498" type="line"/>
      <point x="729" y="498" type="line"/>
      <point x="755" y="606" type="line"/>
      <point x="528" y="606" type="line"/>
      <point x="427" y="503" type="line"/>
      <point x="380" y="606" type="line"/>
      <point x="149" y="606" type="line"/>
    </contour>
  </outline>
</glyph>
<glyph name="section" format="2">
  <advance width="750"/>
  <unicode hex="00A7"/>
  <outline>
    <contour>
      <point x="279" y="-192" type="curve" smooth="yes"/>
      <point x="428" y="-192"/>
      <point x="557" y="-72"/>
      <point x="557" y="70" type="curve" smooth="yes"/>
      <point x="557" y="126"/>
      <point x="537" y="170"/>
      <point x="493" y="213" type="curve"/>
      <point x="465" y="180" type="line"/>
      <point x="601" y="186"/>
      <point x="717" y="296"/>
      <point x="717" y="419" type="curve" smooth="yes"/>
      <point x="717" y="491"/>
      <point x="676" y="555"/>
      <point x="600" y="606" type="curve" smooth="yes"/>
      <point x="470" y="694" type="line" smooth="yes"/>
      <point x="434" y="718"/>
      <point x="427" y="743"/>
      <point x="427" y="763" type="curve" smooth="yes"/>
      <point x="427" y="806"/>
      <point x="461" y="834"/>
      <point x="504" y="834" type="curve" smooth="yes"/>
      <point x="557" y="834"/>
      <point x="618" y="787"/>
      <point x="650" y="723" type="curve"/>
      <point x="729" y="874" type="line"/>
      <point x="691" y="932"/>
      <point x="604" y="972"/>
      <point x="519" y="972" type="curve" smooth="yes"/>
      <point x="383" y="972"/>
      <point x="267" y="863"/>
      <point x="267" y="731" type="curve" smooth="yes"/>
      <point x="267" y="683"/>
      <point x="283" y="645"/>
      <point x="318" y="609" type="curve"/>
      <point x="347" y="643" type="line"/>
      <point x="206" y="637"/>
      <point x="88" y="526"/>
      <point x="88" y="399" type="curve" smooth="yes"/>
      <point x="88" y="326"/>
      <point x="126" y="268"/>
      <point x="205" y="216" type="curve" smooth="yes"/>
      <point x="341" y="127" type="line" smooth="yes"/>
      <point x="380" y="102"/>
      <point x="397" y="66"/>
      <point x="397" y="37" type="curve" smooth="yes"/>
      <point x="397" y="-13"/>
      <point x="355" y="-54"/>
      <point x="299" y="-54" type="curve" smooth="yes"/>
      <point x="236" y="-54"/>
      <point x="162" y="3"/>
      <point x="135" y="67" type="curve"/>
      <point x="53" y="-89" type="line"/>
      <point x="96" y="-151"/>
      <point x="192" y="-192"/>
    </contour>
    <contour>
      <point x="441" y="282" type="curve" smooth="yes"/>
      <point x="421" y="282"/>
      <point x="397" y="286"/>
      <point x="387" y="292" type="curve"/>
      <point x="362" y="306"/>
      <point x="333" y="324"/>
      <point x="315" y="337" type="curve" smooth="yes"/>
      <point x="299" y="348"/>
      <point x="249" y="379"/>
      <point x="249" y="438" type="curve" smooth="yes"/>
      <point x="249" y="497"/>
      <point x="300" y="540"/>
      <point x="366" y="540" type="curve" smooth="yes"/>
      <point x="383" y="540"/>
      <point x="406" y="537"/>
      <point x="422" y="530" type="curve"/>
      <point x="446" y="517"/>
      <point x="472" y="499"/>
      <point x="490" y="486" type="curve" smooth="yes"/>
      <point x="520" y="464"/>
      <point x="557" y="436"/>
      <point x="557" y="390" type="curve" smooth="yes"/>
      <point x="557" y="335"/>
      <point x="509" y="282"/>
    </contour>
  </outline>
</glyph>
<glyph name="copyright" format="2">
  <advance width="1260"/>
  <unicode hex="00A9"/>
  <outline>
    <contour>
      <point x="579" y="-192" type="curve" smooth="yes"/>
      <point x="906" y="-192"/>
      <point x="1202" y="102"/>
      <point x="1202" y="425" type="curve" smooth="yes"/>
      <point x="1202" y="700"/>
      <point x="988" y="912"/>
      <point x="709" y="912" type="curve" smooth="yes"/>
      <point x="382" y="912"/>
      <point x="86" y="618"/>
      <point x="86" y="295" type="curve" smooth="yes"/>
      <point x="86" y="20"/>
      <point x="300" y="-192"/>
    </contour>
    <contour>
      <point x="638" y="78" type="curve" smooth="yes"/>
      <point x="701" y="78"/>
      <point x="765" y="97"/>
      <point x="810" y="133" type="curve"/>
      <point x="810" y="313" type="line"/>
      <point x="787" y="272"/>
      <point x="732" y="220"/>
      <point x="653" y="220" type="curve" smooth="yes"/>
      <point x="575" y="220"/>
      <point x="521" y="274"/>
      <point x="521" y="342" type="curve" smooth="yes"/>
      <point x="521" y="422"/>
      <point x="591" y="500"/>
      <point x="682" y="500" type="curve" smooth="yes"/>
      <point x="743" y="500"/>
      <point x="787" y="467"/>
      <point x="804" y="420" type="curve"/>
      <point x="880" y="578" type="line"/>
      <point x="834" y="618"/>
      <point x="774" y="642"/>
      <point x="703" y="642" type="curve" smooth="yes"/>
      <point x="525" y="642"/>
      <point x="375" y="494"/>
      <point x="375" y="328" type="curve" smooth="yes"/>
      <point x="375" y="182"/>
      <point x="490" y="78"/>
    </contour>
    <contour>
      <point x="590" y="-60" type="curve" smooth="yes"/>
      <point x="383" y="-60"/>
      <point x="224" y="97"/>
      <point x="224" y="306" type="curve" smooth="yes"/>
      <point x="224" y="554"/>
      <point x="449" y="780"/>
      <point x="698" y="780" type="curve" smooth="yes"/>
      <point x="905" y="780"/>
      <point x="1064" y="623"/>
      <point x="1064" y="414" type="curve" smooth="yes"/>
      <point x="1064" y="166"/>
      <point x="839" y="-60"/>
    </contour>
  </outline>
</glyph>
<glyph name="ordfeminine" format="2">
  <advance width="480"/>
  <unicode hex="00AA"/>
  <outline>
    <contour>
      <point x="253" y="412" type="curve" smooth="yes"/>
      <point x="312" y="412"/>
      <point x="355" y="441"/>
      <point x="378" y="491" type="curve"/>
      <point x="360" y="501" type="line"/>
      <point x="340" y="420" type="line"/>
      <point x="466" y="420" type="line"/>
      <point x="554" y="780" type="line"/>
      <point x="428" y="780" type="line"/>
      <point x="406" y="682" type="line"/>
      <point x="457" y="682" type="line"/>
      <point x="446" y="746"/>
      <point x="390" y="788"/>
      <point x="316" y="788" type="curve" smooth="yes"/>
      <point x="207" y="788"/>
      <point x="109" y="690"/>
      <point x="109" y="577" type="curve" smooth="yes"/>
      <point x="109" y="484"/>
      <point x="173" y="412"/>
    </contour>
    <contour>
      <point x="298" y="520" type="curve" smooth="yes"/>
      <point x="262" y="520"/>
      <point x="232" y="551"/>
      <point x="232" y="591" type="curve" smooth="yes"/>
      <point x="232" y="638"/>
      <point x="274" y="680"/>
      <point x="320" y="680" type="curve" smooth="yes"/>
      <point x="360" y="680"/>
      <point x="390" y="650"/>
      <point x="390" y="611" type="curve" smooth="yes"/>
      <point x="390" y="563"/>
      <point x="347" y="520"/>
    </contour>
  </outline>
</glyph>
<glyph name="guillemetleft" format="2">
  <advance width="630"/>
  <unicode hex="00AB"/>
  <outline>
    <contour>
      <point x="398" y="60" type="line"/>
      <point x="550" y="60" type="line"/>
      <point x="447" y="300" type="line"/>
      <point x="668" y="540" type="line"/>
      <point x="496" y="540" type="line"/>
      <point x="289" y="315" type="line"/>
    </contour>
    <contour>
      <point x="138" y="60" type="line"/>
      <point x="290" y="60" type="line"/>
      <point x="177" y="324" type="line"/>
      <point x="377" y="541" type="line"/>
      <point x="205" y="541" type="line"/>
      <point x="19" y="339" type="line"/>
    </contour>
  </outline>
</glyph>
<glyph name="logicalnot" format="2">
  <advance width="750"/>
  <unicode hex="00AC"/>
  <outline>
    <contour>
      <point x="506" y="195" type="line"/>
      <point x="644" y="195" type="line"/>
      <point x="724" y="522" type="line"/>
      <point x="104" y="522" type="line"/>
      <point x="69" y="378" type="line"/>
      <point x="551" y="378" type="line"/>
    </contour>
  </outline>
</glyph>
<glyph name="plusminus" format="2">
  <advance width="750"/>
  <unicode hex="00B1"/>
  <outline>
    <contour>
      <point x="107" y="443" type="line"/>
      <point x="713" y="443" type="line"/>
      <point x="746" y="577" type="line"/>
      <point x="140" y="577" type="line"/>
    </contour>
    <contour>
      <point x="10" y="50" type="line"/>
      <point x="616" y="50" type="line"/>
      <point x="645" y="166" type="line"/>
      <point x="39" y="166" type="line"/>
    </contour>
    <contour>
      <point x="284" y="215" type="line"/>
      <point x="424" y="215" type="line"/>
      <point x="574" y="813" type="line"/>
      <point x="434" y="813" type="line"/>
    </contour>
  </outline>
</glyph>
<glyph name="questiondown" format="2">
  <advance width="480"/>
  <unicode hex="00BF"/>
  <outline>
    <contour>
      <point x="134" y="-320" type="curve" smooth="yes"/>
      <point x="184" y="-320"/>
      <point x="229" y="-308"/>
      <point x="272" y="-285" type="curve"/>
      <point x="314" y="-108" type="line"/>
      <point x="280" y="-135"/>
      <point x="230" y="-164"/>
      <point x="174" y="-164" type="curve" smooth="yes"/>
      <point x="120" y="-164"/>
      <point x="90" y="-133"/>
      <point x="90" y="-99" type="curve" smooth="yes"/>
      <point x="90" y="-13"/>
      <point x="273" y="100"/>
      <point x="304" y="268" type="curve"/>
      <point x="167" y="268" type="line"/>
      <point x="102" y="110"/>
      <point x="-79" y="46"/>
      <point x="-79" y="-127" type="curve" smooth="yes"/>
      <point x="-79" y="-255"/>
      <point x="21" y="-320"/>
    </contour>
    <contour>
      <point x="280" y="408" type="curve" smooth="yes"/>
      <point x="343" y="408"/>
      <point x="398" y="463"/>
      <point x="398" y="525" type="curve" smooth="yes"/>
      <point x="398" y="579"/>
      <point x="356" y="618"/>
      <point x="306" y="618" type="curve" smooth="yes"/>
      <point x="243" y="618"/>
      <point x="188" y="563"/>
      <point x="188" y="500" type="curve" smooth="yes"/>
      <point x="188" y="448"/>
      <point x="227" y="408"/>
    </contour>
  </outline>
</glyph>
<glyph name="multiply" format="2">
  <advance width="750"/>
  <unicode hex="00D7"/>
  <outline>
    <contour>
      <point x="527" y="169" type="line"/>
      <point x="644" y="263" type="line"/>
      <point x="297" y="731" type="line"/>
      <point x="180" y="637" type="line"/>
    </contour>
    <contour>
      <point x="165" y="169" type="line"/>
      <point x="743" y="621" type="line"/>
      <point x="659" y="731" type="line"/>
      <point x="81" y="279" type="line"/>
    </contour>
  </outline>
</glyph>
<glyph name="ae" format="2">
  <advance width="1090"/>
  <unicode hex="00E6"/>
  <anchor x="470" y="0" name="bottom"/>
  <anchor x="575" y="600" name="top"/>
  <outline>
    <contour>
      <point x="740" y="-20" type="curve" smooth="yes"/>
      <point x="816" y="-20"/>
      <point x="889" y="5"/>
      <point x="939" y="44" type="curve"/>
      <point x="939" y="216" type="line"/>
      <point x="907" y="165"/>
      <point x="826" y="124"/>
      <point x="757" y="124" type="curve" smooth="yes"/>
      <point x="664" y="124"/>
      <point x="601" y="185"/>
      <point x="601" y="288" type="curve"/>
      <point x="589" y="288" type="line"/>
      <point x="589" y="397"/>
      <point x="674" y="481"/>
      <point x="782" y="481" type="curve" smooth="yes"/>
      <point x="875" y="481"/>
      <point x="923" y="422"/>
      <point x="913" y="326" type="curve"/>
      <point x="944" y="358" type="line"/>
      <point x="906" y="369"/>
      <point x="867" y="375"/>
      <point x="818" y="375" type="curve" smooth="yes"/>
      <point x="702" y="375" type="line" smooth="yes"/>
      <point x="661" y="375"/>
      <point x="619" y="369"/>
      <point x="562" y="355" type="curve"/>
      <point x="540" y="269" type="line"/>
      <point x="592" y="255"/>
      <point x="630" y="249"/>
      <point x="671" y="249" type="curve" smooth="yes"/>
      <point x="1047" y="249" type="line"/>
      <point x="1060" y="301" type="line" smooth="yes"/>
      <point x="1105" y="482"/>
      <point x="998" y="620"/>
      <point x="811" y="620" type="curve" smooth="yes"/>
      <point x="723" y="620"/>
      <point x="640" y="589"/>
      <point x="575" y="539" type="curve"/>
      <point x="525" y="590"/>
      <point x="444" y="619"/>
      <point x="342" y="619" type="curve" smooth="yes"/>
      <point x="274" y="619"/>
      <point x="205" y="606"/>
      <point x="147" y="581" type="curve"/>
      <point x="145" y="431" type="line"/>
      <point x="196" y="464"/>
      <point x="260" y="484"/>
      <point x="318" y="484" type="curve" smooth="yes"/>
      <point x="422" y="484"/>
      <point x="491" y="421"/>
      <point x="474" y="342" type="curve" smooth="yes"/>
      <point x="471" y="328" type="line"/>
      <point x="416" y="363"/>
      <point x="341" y="384"/>
      <point x="269" y="384" type="curve" smooth="yes"/>
      <point x="121" y="384"/>
      <point x="9" y="291"/>
      <point x="9" y="168" type="curve" smooth="yes"/>
      <point x="9" y="61"/>
      <point x="98" y="-14"/>
      <point x="235" y="-14" type="curve" smooth="yes"/>
      <point x="334" y="-14"/>
      <point x="422" y="24"/>
      <point x="493" y="93" type="curve"/>
      <point x="547" y="23"/>
      <point x="636" y="-20"/>
    </contour>
    <contour>
      <point x="272" y="118" type="curve" smooth="yes"/>
      <point x="210" y="118"/>
      <point x="174" y="143"/>
      <point x="174" y="187" type="curve" smooth="yes"/>
      <point x="174" y="232"/>
      <point x="212" y="258"/>
      <point x="277" y="258" type="curve" smooth="yes"/>
      <point x="331" y="258"/>
      <point x="396" y="240"/>
      <point x="442" y="213" type="curve"/>
      <point x="444" y="205" type="line"/>
      <point x="421" y="156"/>
      <point x="348" y="118"/>
    </contour>
  </outline>
</glyph>
<glyph name="divide" format="2">
  <advance width="750"/>
  <unicode hex="00F7"/>
  <outline>
    <contour>
      <point x="70" y="378" type="line"/>
      <point x="720" y="378" type="line"/>
      <point x="756" y="522" type="line"/>
      <point x="106" y="522" type="line"/>
    </contour>
    <contour>
      <point x="340" y="111" type="curve" smooth="yes"/>
      <point x="399" y="111"/>
      <point x="451" y="163"/>
      <point x="451" y="222" type="curve" smooth="yes"/>
      <point x="451" y="271"/>
      <point x="414" y="309"/>
      <point x="364" y="309" type="curve" smooth="yes"/>
      <point x="305" y="309"/>
      <point x="253" y="257"/>
      <point x="253" y="199" type="curve" smooth="yes"/>
      <point x="253" y="148"/>
      <point x="292" y="111"/>
    </contour>
    <contour>
      <point x="460" y="591" type="curve" smooth="yes"/>
      <point x="519" y="591"/>
      <point x="571" y="643"/>
      <point x="571" y="702" type="curve" smooth="yes"/>
      <point x="571" y="751"/>
      <point x="534" y="789"/>
      <point x="484" y="789" type="curve" smooth="yes"/>
      <point x="425" y="789"/>
      <point x="373" y="737"/>
      <point x="373" y="679" type="curve" smooth="yes"/>
      <point x="373" y="628"/>
      <point x="412" y="591"/>
    </contour>
  </outline>
</glyph>
<glyph name="OE" format="2">
  <advance width="1320"/>
  <unicode hex="0152"/>
  <anchor x="455" y="0" name="bottom"/>
  <anchor x="566" y="450" name="center"/>
  <anchor x="455" y="0" name="ogonek"/>
  <anchor x="677" y="900" name="top"/>
  <anchor x="573" y="480" name="top-vertical"/>
  <anchor x="207" y="900" name="topleft"/>
  <anchor x="1147" y="900" name="topright"/>
  <outline>
    <contour>
      <point x="486" y="-18" type="curve" smooth="yes"/>
      <point x="599" y="-18"/>
      <point x="708" y="27"/>
      <point x="791" y="117" type="curve"/>
      <point x="743" y="128" type="line"/>
      <point x="711" y="0" type="line"/>
      <point x="1191" y="0" type="line"/>
      <point x="1231" y="162" type="line"/>
      <point x="925" y="162" type="line"/>
      <point x="998" y="456" type="line"/>
      <point x="1234" y="456" type="line"/>
      <point x="1272" y="606" type="line"/>
      <point x="1036" y="606" type="line"/>
      <point x="1071" y="744" type="line"/>
      <point x="1377" y="744" type="line"/>
      <point x="1416" y="900" type="line"/>
      <point x="936" y="900" type="line"/>
      <point x="903" y="772" type="line"/>
      <point x="964" y="740" type="line"/>
      <point x="895" y="848"/>
      <point x="769" y="918"/>
      <point x="621" y="918" type="curve" smooth="yes"/>
      <point x="342" y="918"/>
      <point x="92" y="670"/>
      <point x="92" y="396" type="curve" smooth="yes"/>
      <point x="92" y="163"/>
      <point x="263" y="-18"/>
    </contour>
    <contour>
      <point x="533" y="156" type="curve" smooth="yes"/>
      <point x="391" y="156"/>
      <point x="282" y="268"/>
      <point x="282" y="413" type="curve" smooth="yes"/>
      <point x="282" y="586"/>
      <point x="433" y="744"/>
      <point x="602" y="744" type="curve" smooth="yes"/>
      <point x="745" y="744"/>
      <point x="852" y="634"/>
      <point x="852" y="489" type="curve" smooth="yes"/>
      <point x="852" y="315"/>
      <point x="702" y="156"/>
    </contour>
  </outline>
</glyph>
<glyph name="oe" format="2">
  <advance width="1140"/>
  <unicode hex="0153"/>
  <anchor x="570" y="0" name="bottom"/>
  <anchor x="570" y="600" name="top"/>
  <outline>
    <contour>
      <point x="323" y="-20" type="curve" smooth="yes"/>
      <point x="411" y="-20"/>
      <point x="494" y="18"/>
      <point x="559" y="75" type="curve"/>
      <point x="613" y="16"/>
      <point x="695" y="-20"/>
      <point x="790" y="-20" type="curve" smooth="yes"/>
      <point x="866" y="-20"/>
      <point x="939" y="5"/>
      <point x="989" y="44" type="curve"/>
      <point x="989" y="216" type="line"/>
      <point x="957" y="165"/>
      <point x="876" y="124"/>
      <point x="807" y="124" type="curve" smooth="yes"/>
      <point x="714" y="124"/>
      <point x="651" y="185"/>
      <point x="651" y="288" type="curve"/>
      <point x="639" y="288" type="line"/>
      <point x="639" y="397"/>
      <point x="724" y="481"/>
      <point x="832" y="481" type="curve" smooth="yes"/>
      <point x="925" y="481"/>
      <point x="973" y="422"/>
      <point x="963" y="326" type="curve"/>
      <point x="994" y="358" type="line"/>
      <point x="956" y="369"/>
      <point x="917" y="375"/>
      <point x="868" y="375" type="curve" smooth="yes"/>
      <point x="762" y="375" type="line" smooth="yes"/>
      <point x="721" y="375"/>
      <point x="679" y="369"/>
      <point x="622" y="355" type="curve"/>
      <point x="600" y="269" type="line"/>
      <point x="652" y="255"/>
      <point x="690" y="249"/>
      <point x="731" y="249" type="curve" smooth="yes"/>
      <point x="1097" y="249" type="line"/>
      <point x="1110" y="301" type="line" smooth="yes"/>
      <point x="1155" y="482"/>
      <point x="1048" y="620"/>
      <point x="861" y="620" type="curve" smooth="yes"/>
      <point x="767" y="620"/>
      <point x="679" y="585"/>
      <point x="612" y="527" type="curve"/>
      <point x="561" y="584"/>
      <point x="485" y="620"/>
      <point x="398" y="620" type="curve" smooth="yes"/>
      <point x="206" y="620"/>
      <point x="36" y="451"/>
      <point x="36" y="264" type="curve" smooth="yes"/>
      <point x="36" y="99"/>
      <point x="166" y="-20"/>
    </contour>
    <contour>
      <point x="341" y="136" type="curve" smooth="yes"/>
      <point x="259" y="136"/>
      <point x="201" y="199"/>
      <point x="201" y="280" type="curve" smooth="yes"/>
      <point x="201" y="376"/>
      <point x="282" y="464"/>
      <point x="379" y="464" type="curve" smooth="yes"/>
      <point x="461" y="464"/>
      <point x="519" y="400"/>
      <point x="519" y="320" type="curve" smooth="yes"/>
      <point x="519" y="225"/>
      <point x="438" y="136"/>
    </contour>
  </outline>
</glyph>
<glyph name="Schwa" format="2">
  <advance width="1050"/>
  <unicode hex="018F"/>
  <outline>
    <contour>
      <point x="503" y="-18" type="curve" smooth="yes"/>
      <point x="783" y="-18"/>
      <point x="1032" y="230"/>
      <point x="1032" y="503" type="curve" smooth="yes"/>
      <point x="1032" y="736"/>
      <point x="850" y="918"/>
      <point x="611" y="918" type="curve" smooth="yes"/>
      <point x="512" y="918"/>
      <point x="417" y="887"/>
      <point x="335" y="834" type="curve"/>
      <point x="335" y="602" type="line"/>
      <point x="394" y="686"/>
      <point x="490" y="744"/>
      <point x="592" y="744" type="curve" smooth="yes"/>
      <point x="735" y="744"/>
      <point x="842" y="634"/>
      <point x="842" y="489" type="curve" smooth="yes"/>
      <point x="842" y="315"/>
      <point x="692" y="156"/>
      <point x="523" y="156" type="curve" smooth="yes"/>
      <point x="338" y="156"/>
      <point x="233" y="305"/>
      <point x="276" y="486" type="curve"/>
      <point x="187" y="384" type="line"/>
      <point x="695" y="384" type="line" smooth="yes"/>
      <point x="752" y="384"/>
      <point x="812" y="392"/>
      <point x="872" y="404" type="curve"/>
      <point x="899" y="514" type="line"/>
      <point x="845" y="526"/>
      <point x="789" y="534"/>
      <point x="732" y="534" type="curve" smooth="yes"/>
      <point x="102" y="534" type="line"/>
      <point x="96" y="508" type="line" smooth="yes"/>
      <point x="33" y="233"/>
      <point x="213" y="-18"/>
    </contour>
  </outline>
</glyph>
<glyph name="uhorn" format="2">
  <advance width="840"/>
  <unicode hex="01B0"/>
  <anchor x="275" y="0" name="bottom"/>
  <anchor x="419" y="600" name="top"/>
  <outline>
    <contour>
      <point x="231" y="-20" type="curve" smooth="yes"/>
      <point x="349" y="-20"/>
      <point x="463" y="62"/>
      <point x="505" y="233" type="curve"/>
      <point x="446" y="250" type="line"/>
      <point x="425" y="163"/>
      <point x="366" y="124"/>
      <point x="306" y="124" type="curve" smooth="yes"/>
      <point x="229" y="124"/>
      <point x="199" y="188"/>
      <point x="217" y="260" type="curve" smooth="yes"/>
      <point x="303" y="600" type="line"/>
      <point x="129" y="600" type="line"/>
      <point x="43" y="258" type="line" smooth="yes"/>
      <point x="8" y="118"/>
      <point x="69" y="-20"/>
    </contour>
    <contour>
      <point x="403" y="0" type="line"/>
      <point x="559" y="0" type="line"/>
      <point x="671" y="448" type="line"/>
      <point x="659" y="448" type="line"/>
      <point x="697" y="600" type="line"/>
      <point x="535" y="600" type="line"/>
      <point x="428" y="178" type="line"/>
      <point x="439" y="148" type="line"/>
    </contour>
    <contour>
      <point x="697" y="386" type="curve" smooth="yes"/>
      <point x="782" y="386"/>
      <point x="874" y="450"/>
      <point x="903" y="568" type="curve" smooth="yes"/>
      <point x="910" y="597"/>
      <point x="913" y="628"/>
      <point x="902" y="660" type="curve"/>
      <point x="758" y="660" type="line"/>
      <point x="769" y="627"/>
      <point x="765" y="592"/>
      <point x="759" y="568" type="curve" smooth="yes"/>
      <point x="746" y="516"/>
      <point x="711" y="494"/>
      <point x="680" y="494" type="curve" smooth="yes"/>
      <point x="655" y="494"/>
      <point x="635" y="505"/>
      <point x="627" y="528" type="curve"/>
      <point x="601" y="423" type="line"/>
      <point x="623" y="399"/>
      <point x="658" y="386"/>
    </contour>
  </outline>
</glyph>
<glyph name="gravecomb" format="2">
  <unicode hex="0300"/>
  <anchor x="497" y="600" name="_top"/>
  <outline>
    <contour>
      <point x="461" y="678" type="line"/>
      <point x="590" y="678" type="line"/>
      <point x="535" y="900" type="line"/>
      <point x="357" y="900" type="line"/>
    </contour>
  </outline>
</glyph>
<glyph name="tildecomb" format="2">
  <unicode hex="0303"/>
  <anchor x="435" y="600" name="_top"/>
  <outline>
    <contour>
      <point x="305" y="683" type="line"/>
      <point x="323" y="727"/>
      <point x="352" y="753"/>
      <point x="394" y="753" type="curve" smooth="yes"/>
      <point x="452" y="753"/>
      <point x="503" y="703"/>
      <point x="574" y="703" type="curve" smooth="yes"/>
      <point x="629" y="703"/>
      <point x="678" y="733"/>
      <point x="705" y="786" type="curve"/>
      <point x="663" y="907" type="line"/>
      <point x="645" y="863"/>
      <point x="616" y="837"/>
      <point x="574" y="837" type="curve" smooth="yes"/>
      <point x="516" y="837"/>
      <point x="465" y="887"/>
      <point x="394" y="887" type="curve" smooth="yes"/>
      <point x="339" y="887"/>
      <point x="290" y="857"/>
      <point x="263" y="804" type="curve"/>
    </contour>
  </outline>
</glyph>
<glyph name="brevecomb" format="2">
  <unicode hex="0306"/>
  <anchor x="435" y="600" name="_top"/>
  <anchor x="497" y="849" name="top"/>
  <outline>
    <contour>
      <point x="482" y="663" type="curve" smooth="yes"/>
      <point x="584" y="663"/>
      <point x="682" y="727"/>
      <point x="703" y="861" type="curve"/>
      <point x="577" y="861" type="line"/>
      <point x="567" y="810"/>
      <point x="529" y="783"/>
      <point x="490" y="783" type="curve" smooth="yes"/>
      <point x="447" y="783"/>
      <point x="416" y="819"/>
      <point x="421" y="861" type="curve"/>
      <point x="295" y="861" type="line"/>
      <point x="280" y="746"/>
      <point x="366" y="663"/>
    </contour>
  </outline>
</glyph>
<glyph name="dblgravecomb" format="2">
  <unicode hex="030F"/>
  <anchor x="410" y="600" name="_top"/>
  <outline>
    <contour>
      <point x="474" y="678" type="line"/>
      <point x="601" y="678" type="line"/>
      <point x="540" y="870" type="line"/>
      <point x="360" y="870" type="line"/>
    </contour>
    <contour>
      <point x="228" y="678" type="line"/>
      <point x="355" y="678" type="line"/>
      <point x="294" y="870" type="line"/>
      <point x="114" y="870" type="line"/>
    </contour>
  </outline>
</glyph>
<glyph name="pi" format="2">
  <advance width="700"/>
  <unicode hex="03C0"/>
  <anchor x="275" y="0" name="bottom"/>
  <anchor x="426" y="600" name="top"/>
  <outline>
    <contour>
      <point x="385" y="0" type="line"/>
      <point x="559" y="0" type="line"/>
      <point x="710" y="600" type="line"/>
      <point x="536" y="600" type="line"/>
    </contour>
    <contour>
      <point x="-9" y="0" type="line"/>
      <point x="165" y="0" type="line"/>
      <point x="316" y="600" type="line"/>
      <point x="142" y="600" type="line"/>
    </contour>
    <contour>
      <point x="163" y="444" type="line"/>
      <point x="611" y="444" type="line"/>
      <point x="650" y="600" type="line"/>
      <point x="202" y="600" type="line"/>
    </contour>
  </outline>
</glyph>
<glyph name="Germandbls" format="2">
  <advance width="990"/>
  <unicode hex="1E9E"/>
  <outline>
    <contour>
      <point x="594" y="-20" type="curve" smooth="yes"/>
      <point x="783" y="-20"/>
      <point x="958" y="142"/>
      <point x="958" y="333" type="curve" smooth="yes"/>
      <point x="958" y="448"/>
      <point x="894" y="545"/>
      <point x="796" y="585" type="curve"/>
      <point x="797" y="541" type="line"/>
      <point x="1080" y="900" type="line"/>
      <point x="246" y="900" type="line"/>
      <point x="21" y="0" type="line"/>
      <point x="206" y="0" type="line"/>
      <point x="391" y="738" type="line"/>
      <point x="771" y="738" type="line"/>
      <point x="540" y="445" type="line"/>
      <point x="572" y="457"/>
      <point x="600" y="463"/>
      <point x="629" y="463" type="curve" smooth="yes"/>
      <point x="730" y="463"/>
      <point x="787" y="397"/>
      <point x="787" y="320" type="curve" smooth="yes"/>
      <point x="787" y="230"/>
      <point x="708" y="142"/>
      <point x="609" y="142" type="curve" smooth="yes"/>
      <point x="506" y="142"/>
      <point x="447" y="237"/>
      <point x="451" y="334" type="curve"/>
      <point x="315" y="165" type="line"/>
      <point x="362" y="46"/>
      <point x="473" y="-20"/>
    </contour>
  </outline>
</glyph>
<glyph name="dagger" format="2">
  <advance width="600"/>
  <unicode hex="2020"/>
  <outline>
    <contour>
      <point x="146" y="0" type="line"/>
      <point x="308" y="0" type="line"/>
      <point x="452" y="666" type="line"/>
      <point x="378" y="577" type="line"/>
      <point x="606" y="563" type="line"/>
      <point x="639" y="698" type="line"/>
      <point x="456" y="683" type="line"/>
      <point x="530" y="900" type="line"/>
      <point x="368" y="900" type="line"/>
      <point x="335" y="683" type="line"/>
      <point x="159" y="698" type="line"/>
      <point x="126" y="563" type="line"/>
      <point x="360" y="577" type="line"/>
      <point x="331" y="666" type="line"/>
    </contour>
  </outline>
</glyph>
<glyph name="daggerdbl" format="2">
  <advance width="600"/>
  <unicode hex="2021"/>
  <outline>
    <contour>
      <point x="144" y="-2" type="line"/>
      <point x="306" y="-2" type="line"/>
      <point x="339" y="215" type="line"/>
      <point x="515" y="200" type="line"/>
      <point x="548" y="335" type="line"/>
      <point x="314" y="321" type="line"/>
      <point x="343" y="232" type="line"/>
      <point x="405" y="448" type="line"/>
      <point x="450" y="664" type="line"/>
      <point x="376" y="575" type="line"/>
      <point x="604" y="561" type="line"/>
      <point x="637" y="696" type="line"/>
      <point x="454" y="681" type="line"/>
      <point x="528" y="898" type="line"/>
      <point x="366" y="898" type="line"/>
      <point x="333" y="681" type="line"/>
      <point x="157" y="696" type="line"/>
      <point x="124" y="561" type="line"/>
      <point x="358" y="575" type="line"/>
      <point x="329" y="664" type="line"/>
      <point x="267" y="448" type="line"/>
      <point x="222" y="232" type="line"/>
      <point x="296" y="321" type="line"/>
      <point x="68" y="335" type="line"/>
      <point x="35" y="200" type="line"/>
      <point x="218" y="215" type="line"/>
    </contour>
  </outline>
</glyph>
<glyph name="bullet" format="2">
  <advance width="480"/>
  <unicode hex="2022"/>
  <outline>
    <contour>
      <point x="221" y="294" type="curve" smooth="yes"/>
      <point x="317" y="294"/>
      <point x="396" y="377"/>
      <point x="396" y="468" type="curve" smooth="yes"/>
      <point x="396" y="545"/>
      <point x="339" y="606"/>
      <point x="259" y="606" type="curve" smooth="yes"/>
      <point x="163" y="606"/>
      <point x="84" y="522"/>
      <point x="84" y="430" type="curve" smooth="yes"/>
      <point x="84" y="352"/>
      <point x="141" y="294"/>
    </contour>
  </outline>
</glyph>
<glyph name="guilsinglleft" format="2">
  <advance width="360"/>
  <unicode hex="2039"/>
  <outline>
    <contour>
      <point x="128" y="60" type="line"/>
      <point x="280" y="60" type="line"/>
      <point x="177" y="300" type="line"/>
      <point x="398" y="540" type="line"/>
      <point x="226" y="540" type="line"/>
      <point x="19" y="315" type="line"/>
    </contour>
  </outline>
</glyph>
<glyph name="guilsinglright" format="2">
  <advance width="360"/>
  <unicode hex="203A"/>
  <outline>
    <contour>
      <point x="-39" y="60" type="line"/>
      <point x="133" y="60" type="line"/>
      <point x="340" y="285" type="line"/>
      <point x="231" y="540" type="line"/>
      <point x="79" y="540" type="line"/>
      <point x="182" y="300" type="line"/>
    </contour>
  </outline>
</glyph>
<glyph name="euro" format="2">
  <advance width="750"/>
  <unicode hex="20AC"/>
  <outline>
    <contour>
      <point x="458" y="-20" type="curve" smooth="yes"/>
      <point x="520" y="-20"/>
      <point x="585" y="-1"/>
      <point x="642" y="37" type="curve"/>
      <point x="642" y="216" type="line"/>
      <point x="600" y="170"/>
      <point x="541" y="134"/>
      <point x="482" y="134" type="curve" smooth="yes"/>
      <point x="395" y="134"/>
      <point x="352" y="205"/>
      <point x="352" y="310" type="curve" smooth="yes"/>
      <point x="352" y="453"/>
      <point x="431" y="764"/>
      <point x="602" y="764" type="curve" smooth="yes"/>
      <point x="671" y="764"/>
      <point x="723" y="707"/>
      <point x="744" y="644" type="curve"/>
      <point x="832" y="813" type="line"/>
      <point x="780" y="882"/>
      <point x="700" y="920"/>
      <point x="616" y="920" type="curve" smooth="yes"/>
      <point x="343" y="920"/>
      <point x="186" y="562"/>
      <point x="186" y="314" type="curve" smooth="yes"/>
      <point x="186" y="124"/>
      <point x="278" y="-20"/>
    </contour>
    <contour>
      <point x="71" y="294" type="line"/>
      <point x="557" y="294" type="line"/>
      <point x="583" y="402" type="line"/>
      <point x="97" y="402" type="line"/>
    </contour>
    <contour>
      <point x="121" y="498" type="line"/>
      <point x="607" y="498" type="line"/>
      <point x="633" y="606" type="line"/>
      <point x="147" y="606" type="line"/>
    </contour>
  </outline>
</glyph>
<glyph name="numero" format="2">
  <advance width="1380"/>
  <unicode hex="2116"/>
  <outline>
    <contour>
      <point x="722" y="-30" type="line"/>
      <point x="954" y="900" type="line"/>
      <point x="786" y="900" type="line"/>
      <point x="653" y="365" type="line"/>
      <point x="253" y="930" type="line"/>
      <point x="21" y="0" type="line"/>
      <point x="189" y="0" type="line"/>
      <point x="322" y="536" type="line"/>
    </contour>
    <contour>
      <point x="1103" y="100" type="curve" smooth="yes"/>
      <point x="1166" y="100"/>
      <point x="1221" y="155"/>
      <point x="1221" y="218" type="curve" smooth="yes"/>
      <point x="1221" y="270"/>
      <point x="1182" y="310"/>
      <point x="1129" y="310" type="curve" smooth="yes"/>
      <point x="1066" y="310"/>
      <point x="1011" y="255"/>
      <point x="1011" y="193" type="curve" smooth="yes"/>
      <point x="1011" y="139"/>
      <point x="1053" y="100"/>
    </contour>
    <contour>
      <point x="1192" y="402" type="curve" smooth="yes"/>
      <point x="1312" y="402"/>
      <point x="1420" y="505"/>
      <point x="1420" y="620" type="curve" smooth="yes"/>
      <point x="1420" y="721"/>
      <point x="1340" y="798"/>
      <point x="1237" y="798" type="curve" smooth="yes"/>
      <point x="1116" y="798"/>
      <point x="1008" y="695"/>
      <point x="1008" y="579" type="curve" smooth="yes"/>
      <point x="1008" y="479"/>
      <point x="1088" y="402"/>
    </contour>
    <contour>
      <point x="1205" y="519" type="curve" smooth="yes"/>
      <point x="1163" y="519"/>
      <point x="1131" y="551"/>
      <point x="1131" y="592" type="curve" smooth="yes"/>
      <point x="1131" y="638"/>
      <point x="1175" y="681"/>
      <point x="1223" y="681" type="curve" smooth="yes"/>
      <point x="1265" y="681"/>
      <point x="1297" y="650"/>
      <point x="1297" y="608" type="curve" smooth="yes"/>
      <point x="1297" y="562"/>
      <point x="1253" y="519"/>
    </contour>
  </outline>
</glyph>
<glyph name="trademark" format="2">
  <advance width="840"/>
  <unicode hex="2122"/>
  <outline>
    <contour>
      <point x="447" y="540" type="line"/>
      <point x="555" y="540" type="line"/>
      <point x="570" y="604" type="line" smooth="yes"/>
      <point x="575" y="625"/>
      <point x="579" y="641"/>
      <point x="582" y="661" type="curve"/>
      <point x="588" y="645"/>
      <point x="595" y="635"/>
      <point x="601" y="625" type="curve" smooth="yes"/>
      <point x="648" y="546" type="line"/>
      <point x="732" y="623" type="line" smooth="yes"/>
      <point x="745" y="635"/>
      <point x="755" y="645"/>
      <point x="768" y="659" type="curve"/>
      <point x="761" y="637"/>
      <point x="756" y="620"/>
      <point x="752" y="604" type="curve" smooth="yes"/>
      <point x="737" y="540" type="line"/>
      <point x="851" y="540" type="line"/>
      <point x="949" y="944" type="line"/>
      <point x="680" y="707" type="line"/>
      <point x="540" y="920" type="line"/>
    </contour>
    <contour>
      <point x="184" y="540" type="line"/>
      <point x="298" y="540" type="line"/>
      <point x="361" y="798" type="line"/>
      <point x="458" y="798" type="line"/>
      <point x="483" y="900" type="line"/>
      <point x="175" y="900" type="line"/>
      <point x="150" y="798" type="line"/>
      <point x="247" y="798" type="line"/>
    </contour>
  </outline>
</glyph>
<glyph name="el" format="2">
  <advance width="750"/>
  <unicode hex="218B"/>
  <outline>
    <contour>
      <point x="39" y="0" type="line"/>
      <point x="601" y="0" type="line"/>
      <point x="639" y="156" type="line"/>
      <point x="277" y="156" type="line"/>
      <point x="309" y="110" type="line"/>
      <point x="583" y="470" type="line"/>
      <point x="556" y="461"/>
      <point x="532" y="457"/>
      <point x="507" y="457" type="curve" smooth="yes"/>
      <point x="428" y="457"/>
      <point x="362" y="501"/>
      <point x="362" y="585" type="curve" smooth="yes"/>
      <point x="362" y="675"/>
      <point x="437" y="760"/>
      <point x="533" y="760" type="curve" smooth="yes"/>
      <point x="625" y="760"/>
      <point x="679" y="682"/>
      <point x="679" y="595" type="curve"/>
      <point x="811" y="758" type="line"/>
      <point x="767" y="861"/>
      <point x="660" y="920"/>
      <point x="547" y="920" type="curve" smooth="yes"/>
      <point x="362" y="920"/>
      <point x="191" y="755"/>
      <point x="191" y="572" type="curve" smooth="yes"/>
      <point x="191" y="463"/>
      <point x="256" y="374"/>
      <point x="352" y="336" type="curve"/>
      <point x="348" y="406" type="line"/>
    </contour>
  </outline>
</glyph>
<glyph name="approxequal" format="2">
  <advance width="750"/>
  <unicode hex="2248"/>
  <outline>
    <contour>
      <point x="144" y="468" type="line"/>
      <point x="185" y="528"/>
      <point x="224" y="558"/>
      <point x="284" y="558" type="curve" smooth="yes"/>
      <point x="386" y="558"/>
      <point x="461" y="468"/>
      <point x="584" y="468" type="curve" smooth="yes"/>
      <point x="661" y="468"/>
      <point x="732" y="504"/>
      <point x="787" y="567" type="curve"/>
      <point x="747" y="695" type="line"/>
      <point x="708" y="635"/>
      <point x="665" y="606"/>
      <point x="610" y="606" type="curve" smooth="yes"/>
      <point x="514" y="606"/>
      <point x="446" y="696"/>
      <point x="310" y="696" type="curve" smooth="yes"/>
      <point x="227" y="696"/>
      <point x="161" y="662"/>
      <point x="104" y="596" type="curve"/>
    </contour>
    <contour>
      <point x="78" y="204" type="line"/>
      <point x="119" y="264"/>
      <point x="158" y="294"/>
      <point x="218" y="294" type="curve" smooth="yes"/>
      <point x="320" y="294"/>
      <point x="395" y="204"/>
      <point x="518" y="204" type="curve" smooth="yes"/>
      <point x="595" y="204"/>
      <point x="666" y="240"/>
      <point x="721" y="303" type="curve"/>
      <point x="681" y="431" type="line"/>
      <point x="642" y="371"/>
      <point x="599" y="342"/>
      <point x="544" y="342" type="curve" smooth="yes"/>
      <point x="448" y="342"/>
      <point x="380" y="432"/>
      <point x="244" y="432" type="curve" smooth="yes"/>
      <point x="161" y="432"/>
      <point x="95" y="398"/>
      <point x="38" y="332" type="curve"/>
    </contour>
  </outline>
</glyph>
<glyph name="A.ring" format="2">
  <advance width="820"/>
  <anchor x="557" y="900" name="top"/>
  <outline>
    <contour>
      <point x="-63" y="0" type="line"/>
      <point x="122" y="0" type="line"/>
      <point x="386" y="396" type="line" smooth="yes"/>
      <point x="419" y="445"/>
      <point x="446" y="488"/>
      <point x="476" y="548" type="curve"/>
      <point x="477" y="487"/>
      <point x="485" y="445"/>
      <point x="494" y="396" type="curve" smooth="yes"/>
      <point x="562" y="0" type="line"/>
      <point x="733" y="0" type="line"/>
      <point x="572" y="900" type="line"/>
      <point x="542" y="900" type="line"/>
    </contour>
    <contour>
      <point x="153" y="160" type="line"/>
      <point x="591" y="160" type="line"/>
      <point x="574" y="304" type="line"/>
      <point x="242" y="304" type="line"/>
    </contour>
  </outline>
</glyph>
<glyph name="backslash.titl" format="2">
  <advance width="480"/>
  <outline>
    <contour>
      <point x="440" y="-180" type="line"/>
      <point x="174" y="960" type="line"/>
      <point x="90" y="960" type="line"/>
      <point x="356" y="-180" type="line"/>
    </contour>
  </outline>
</glyph>
<glyph name="braceleft.titl" format="2">
  <advance width="480"/>
  <outline>
    <contour>
      <point x="286" y="-186" type="curve"/>
      <point x="316" y="-121" type="line"/>
      <point x="218" y="-106"/>
      <point x="139" y="-50"/>
      <point x="181" y="122" type="curve" smooth="yes"/>
      <point x="195" y="178"/>
      <point x="214" y="218"/>
      <point x="224" y="258" type="curve" smooth="yes"/>
      <point x="251" y="363"/>
      <point x="211" y="427"/>
      <point x="112" y="439" type="curve"/>
      <point x="108" y="419" type="line"/>
      <point x="205" y="407"/>
      <point x="275" y="456"/>
      <point x="301" y="566" type="curve" smooth="yes"/>
      <point x="311" y="607"/>
      <point x="312" y="648"/>
      <point x="324" y="698" type="curve" smooth="yes"/>
      <point x="364" y="864"/>
      <point x="473" y="897"/>
      <point x="569" y="897" type="curve"/>
      <point x="569" y="966" type="line"/>
      <point x="397" y="966"/>
      <point x="290" y="886"/>
      <point x="249" y="713" type="curve" smooth="yes"/>
      <point x="236" y="659"/>
      <point x="233" y="611"/>
      <point x="222" y="569" type="curve" smooth="yes"/>
      <point x="202" y="488"/>
      <point x="164" y="459"/>
      <point x="69" y="433" type="curve"/>
      <point x="145" y="388"/>
      <point x="168" y="352"/>
      <point x="149" y="272" type="curve" smooth="yes"/>
      <point x="139" y="230"/>
      <point x="117" y="181"/>
      <point x="104" y="129" type="curve" smooth="yes"/>
      <point x="57" y="-57"/>
      <point x="151" y="-161"/>
    </contour>
  </outline>
</glyph>
<glyph name="braceright.titl" format="2">
  <advance width="480"/>
  <outline>
    <contour>
      <point x="-44" y="-186" type="line"/>
      <point x="128" y="-186"/>
      <point x="235" y="-106"/>
      <point x="276" y="67" type="curve" smooth="yes"/>
      <point x="289" y="121"/>
      <point x="292" y="169"/>
      <point x="303" y="211" type="curve" smooth="yes"/>
      <point x="323" y="292"/>
      <point x="361" y="321"/>
      <point x="456" y="347" type="curve"/>
      <point x="380" y="392"/>
      <point x="357" y="428"/>
      <point x="376" y="508" type="curve" smooth="yes"/>
      <point x="386" y="550"/>
      <point x="408" y="599"/>
      <point x="421" y="651" type="curve" smooth="yes"/>
      <point x="468" y="837"/>
      <point x="374" y="941"/>
      <point x="239" y="966" type="curve"/>
      <point x="209" y="901" type="line"/>
      <point x="307" y="886"/>
      <point x="386" y="830"/>
      <point x="344" y="658" type="curve" smooth="yes"/>
      <point x="330" y="602"/>
      <point x="311" y="562"/>
      <point x="301" y="522" type="curve" smooth="yes"/>
      <point x="274" y="417"/>
      <point x="314" y="353"/>
      <point x="413" y="341" type="curve"/>
      <point x="417" y="361" type="line"/>
      <point x="320" y="373"/>
      <point x="250" y="324"/>
      <point x="224" y="214" type="curve" smooth="yes"/>
      <point x="214" y="173"/>
      <point x="213" y="132"/>
      <point x="201" y="82" type="curve" smooth="yes"/>
      <point x="161" y="-84"/>
      <point x="52" y="-117"/>
      <point x="-44" y="-117" type="curve"/>
    </contour>
  </outline>
</glyph>
<glyph name="brevecomb_hookabovecomb" format="2">
  <anchor x="435" y="600" name="_top"/>
  <outline>
    <contour>
      <point x="482" y="663" type="curve" smooth="yes"/>
      <point x="584" y="663"/>
      <point x="682" y="727"/>
      <point x="703" y="861" type="curve"/>
      <point x="583" y="861" type="line"/>
      <point x="572" y="806"/>
      <point x="531" y="777"/>
      <point x="490" y="777" type="curve" smooth="yes"/>
      <point x="443" y="777"/>
      <point x="410" y="816"/>
      <point x="415" y="861" type="curve"/>
      <point x="295" y="861" type="line"/>
      <point x="280" y="746"/>
      <point x="366" y="663"/>
    </contour>
    <contour>
      <point x="442" y="879" type="curve"/>
      <point x="574" y="879" type="line"/>
      <point x="605" y="904"/>
      <point x="625" y="933"/>
      <point x="634" y="969" type="curve" smooth="yes"/>
      <point x="651" y="1042"/>
      <point x="595" y="1084"/>
      <point x="511" y="1084" type="curve" smooth="yes"/>
      <point x="461" y="1084"/>
      <point x="409" y="1068"/>
      <point x="382" y="1049" type="curve"/>
      <point x="386" y="951" type="line"/>
      <point x="404" y="967"/>
      <point x="432" y="982"/>
      <point x="454" y="982" type="curve" smooth="yes"/>
      <point x="484" y="982"/>
      <point x="498" y="965"/>
      <point x="492" y="941" type="curve" smooth="yes"/>
      <point x="487" y="924"/>
      <point x="473" y="904"/>
    </contour>
  </outline>
</glyph>
<glyph name="brokenbar.titl" format="2">
  <advance width="480"/>
  <outline>
    <contour>
      <point x="201" y="-180" type="line"/>
      <point x="279" y="-180" type="line"/>
      <point x="279" y="240" type="line"/>
      <point x="201" y="240" type="line"/>
    </contour>
    <contour>
      <point x="201" y="540" type="line"/>
      <point x="279" y="540" type="line"/>
      <point x="279" y="960" type="line"/>
      <point x="201" y="960" type="line"/>
    </contour>
  </outline>
</glyph>
<glyph name="circumflexcomb_acutecomb" format="2">
  <anchor x="435" y="600" name="_top"/>
  <outline>
    <contour>
      <point x="235" y="678" type="line"/>
      <point x="403" y="678" type="line"/>
      <point x="431" y="702"/>
      <point x="454" y="725"/>
      <point x="481" y="754" type="curve"/>
      <point x="494" y="725"/>
      <point x="505" y="702"/>
      <point x="521" y="678" type="curve"/>
      <point x="673" y="678" type="line"/>
      <point x="514" y="921" type="line"/>
    </contour>
    <contour>
      <point x="620" y="819" type="line"/>
      <point x="746" y="819" type="line"/>
      <point x="894" y="969" type="line"/>
      <point x="726" y="969" type="line"/>
    </contour>
  </outline>
</glyph>
<glyph name="circumflexcomb_tildecomb" format="2">
  <anchor x="435" y="600" name="_top"/>
  <outline>
    <contour>
      <point x="235" y="678" type="line"/>
      <point x="403" y="678" type="line"/>
      <point x="430" y="698"/>
      <point x="452" y="718"/>
      <point x="478" y="742" type="curve"/>
      <point x="492" y="718"/>
      <point x="504" y="698"/>
      <point x="521" y="678" type="curve"/>
      <point x="673" y="678" type="line"/>
      <point x="510" y="903" type="line"/>
    </contour>
    <contour>
      <point x="372" y="897" type="line"/>
      <point x="388" y="938"/>
      <point x="415" y="962"/>
      <point x="453" y="962" type="curve" smooth="yes"/>
      <point x="505" y="962"/>
      <point x="551" y="915"/>
      <point x="615" y="915" type="curve" smooth="yes"/>
      <point x="665" y="915"/>
      <point x="710" y="943"/>
      <point x="734" y="990" type="curve"/>
      <point x="696" y="1098" type="line"/>
      <point x="680" y="1058"/>
      <point x="653" y="1035"/>
      <point x="615" y="1035" type="curve" smooth="yes"/>
      <point x="563" y="1035"/>
      <point x="517" y="1082"/>
      <point x="453" y="1082" type="curve" smooth="yes"/>
      <point x="403" y="1082"/>
      <point x="358" y="1055"/>
      <point x="334" y="1007" type="curve"/>
    </contour>
  </outline>
</glyph>
<glyph name="d.croat" format="2">
  <advance width="740"/>
  <anchor x="296" y="0" name="bottom"/>
  <anchor x="709" y="780" name="center"/>
  <anchor x="444" y="600" name="top"/>
  <anchor x="839" y="960" name="topright"/>
  <outline>
    <contour>
      <point x="288" y="-14" type="curve" smooth="yes"/>
      <point x="385" y="-14"/>
      <point x="464" y="39"/>
      <point x="518" y="110" type="curve"/>
      <point x="486" y="150" type="line"/>
      <point x="449" y="0" type="line"/>
      <point x="599" y="0" type="line"/>
      <point x="839" y="960" type="line"/>
      <point x="677" y="960" type="line"/>
      <point x="548" y="450" type="line"/>
      <point x="619" y="484" type="line"/>
      <point x="576" y="564"/>
      <point x="487" y="614"/>
      <point x="387" y="614" type="curve" smooth="yes"/>
      <point x="206" y="614"/>
      <point x="36" y="448"/>
      <point x="36" y="256" type="curve" smooth="yes"/>
      <point x="36" y="103"/>
      <point x="145" y="-14"/>
    </contour>
    <contour>
      <point x="336" y="139" type="curve" smooth="yes"/>
      <point x="255" y="139"/>
      <point x="198" y="201"/>
      <point x="198" y="280" type="curve" smooth="yes"/>
      <point x="198" y="374"/>
      <point x="278" y="460"/>
      <point x="374" y="460" type="curve" smooth="yes"/>
      <point x="455" y="460"/>
      <point x="512" y="400"/>
      <point x="512" y="320" type="curve" smooth="yes"/>
      <point x="512" y="225"/>
      <point x="432" y="139"/>
    </contour>
  </outline>
</glyph>
<glyph name="dieresiscomb.Odieresis.case" format="2">
  <anchor x="510" y="900" name="_top"/>
  <outline>
    <contour>
      <point x="780" y="874" type="curve" smooth="yes"/>
      <point x="838" y="874"/>
      <point x="888" y="924"/>
      <point x="888" y="982" type="curve" smooth="yes"/>
      <point x="888" y="1029"/>
      <point x="852" y="1066"/>
      <point x="804" y="1066" type="curve" smooth="yes"/>
      <point x="746" y="1066"/>
      <point x="696" y="1016"/>
      <point x="696" y="958" type="curve" smooth="yes"/>
      <point x="696" y="909"/>
      <point x="734" y="874"/>
    </contour>
    <contour>
      <point x="216" y="924" type="curve" smooth="yes"/>
      <point x="274" y="924"/>
      <point x="324" y="974"/>
      <point x="324" y="1032" type="curve" smooth="yes"/>
      <point x="324" y="1079"/>
      <point x="288" y="1116"/>
      <point x="240" y="1116" type="curve" smooth="yes"/>
      <point x="182" y="1116"/>
      <point x="132" y="1066"/>
      <point x="132" y="1008" type="curve" smooth="yes"/>
      <point x="132" y="959"/>
      <point x="170" y="924"/>
    </contour>
  </outline>
</glyph>
<glyph name="dieresiscomb.vertical.A" format="2">
  <anchor x="360" y="540" name="_top-vertical"/>
  <outline>
    <contour>
      <point x="281" y="351" type="curve" smooth="yes"/>
      <point x="331" y="351"/>
      <point x="375" y="395"/>
      <point x="375" y="445" type="curve" smooth="yes"/>
      <point x="375" y="486"/>
      <point x="343" y="519"/>
      <point x="301" y="519" type="curve" smooth="yes"/>
      <point x="251" y="519"/>
      <point x="207" y="475"/>
      <point x="207" y="425" type="curve" smooth="yes"/>
      <point x="207" y="382"/>
      <point x="241" y="351"/>
    </contour>
    <contour>
      <point x="419" y="561" type="curve" smooth="yes"/>
      <point x="469" y="561"/>
      <point x="513" y="605"/>
      <point x="513" y="655" type="curve" smooth="yes"/>
      <point x="513" y="696"/>
      <point x="481" y="729"/>
      <point x="439" y="729" type="curve" smooth="yes"/>
      <point x="389" y="729"/>
      <point x="345" y="685"/>
      <point x="345" y="635" type="curve" smooth="yes"/>
      <point x="345" y="592"/>
      <point x="379" y="561"/>
    </contour>
  </outline>
</glyph>
<glyph name="dotaccentcomb.case" format="2">
  <anchor x="510" y="900" name="_top"/>
  <outline>
    <contour>
      <point x="543" y="984" type="curve" smooth="yes"/>
      <point x="601" y="984"/>
      <point x="651" y="1034"/>
      <point x="651" y="1092" type="curve" smooth="yes"/>
      <point x="651" y="1139"/>
      <point x="615" y="1176"/>
      <point x="567" y="1176" type="curve" smooth="yes"/>
      <point x="509" y="1176"/>
      <point x="459" y="1126"/>
      <point x="459" y="1068" type="curve" smooth="yes"/>
      <point x="459" y="1019"/>
      <point x="497" y="984"/>
    </contour>
  </outline>
</glyph>
<glyph name="dotaccentcomb_macroncomb" format="2">
  <anchor x="435" y="600" name="_top"/>
  <outline>
    <contour>
      <point x="469" y="687" type="curve" smooth="yes"/>
      <point x="524" y="687"/>
      <point x="573" y="736"/>
      <point x="573" y="791" type="curve" smooth="yes"/>
      <point x="573" y="837"/>
      <point x="538" y="873"/>
      <point x="491" y="873" type="curve" smooth="yes"/>
      <point x="436" y="873"/>
      <point x="387" y="824"/>
      <point x="387" y="769" type="curve" smooth="yes"/>
      <point x="387" y="721"/>
      <point x="424" y="687"/>
    </contour>
    <contour>
      <point x="335" y="938" type="line"/>
      <point x="701" y="938" type="line"/>
      <point x="731" y="1058" type="line"/>
      <point x="365" y="1058" type="line"/>
    </contour>
  </outline>
</glyph>
<glyph name="eight.numr" format="2">
  <advance width="480"/>
  <outline>
    <contour>
      <point x="302" y="402" type="curve" smooth="yes"/>
      <point x="416" y="402"/>
      <point x="506" y="479"/>
      <point x="506" y="581" type="curve" smooth="yes"/>
      <point x="506" y="639"/>
      <point x="476" y="686"/>
      <point x="424" y="710" type="curve"/>
      <point x="437" y="665" type="line"/>
      <point x="484" y="682"/>
      <point x="522" y="738"/>
      <point x="522" y="795" type="curve" smooth="yes"/>
      <point x="522" y="868"/>
      <point x="458" y="918"/>
      <point x="370" y="918" type="curve" smooth="yes"/>
      <point x="273" y="918"/>
      <point x="195" y="853"/>
      <point x="195" y="769" type="curve" smooth="yes"/>
      <point x="195" y="736"/>
      <point x="207" y="710"/>
      <point x="231" y="691" type="curve"/>
      <point x="265" y="731" type="line"/>
      <point x="179" y="716"/>
      <point x="108" y="637"/>
      <point x="108" y="556" type="curve" smooth="yes"/>
      <point x="108" y="469"/>
      <point x="194" y="402"/>
    </contour>
    <contour>
      <point x="302" y="510" type="curve" smooth="yes"/>
      <point x="267" y="510"/>
      <point x="241" y="537"/>
      <point x="241" y="574" type="curve" smooth="yes"/>
      <point x="241" y="617"/>
      <point x="278" y="654"/>
      <point x="320" y="654" type="curve" smooth="yes"/>
      <point x="353" y="654"/>
      <point x="380" y="629"/>
      <point x="380" y="591" type="curve" smooth="yes"/>
      <point x="380" y="547"/>
      <point x="342" y="510"/>
    </contour>
    <contour>
      <point x="347" y="720" type="curve" smooth="yes"/>
      <point x="323" y="720"/>
      <point x="304" y="738"/>
      <point x="304" y="764" type="curve" smooth="yes"/>
      <point x="304" y="795"/>
      <point x="331" y="822"/>
      <point x="361" y="822" type="curve" smooth="yes"/>
      <point x="383" y="822"/>
      <point x="405" y="803"/>
      <point x="405" y="777" type="curve" smooth="yes"/>
      <point x="405" y="746"/>
      <point x="376" y="720"/>
    </contour>
  </outline>
</glyph>
<glyph name="endash.case" format="2">
  <advance width="720"/>
  <outline>
    <contour>
      <point x="69" y="378" type="line"/>
      <point x="689" y="378" type="line"/>
      <point x="725" y="522" type="line"/>
      <point x="105" y="522" type="line"/>
    </contour>
  </outline>
</glyph>
<glyph name="endash.titl.case" format="2">
  <advance width="720"/>
  <outline>
    <contour>
      <point x="88" y="414" type="line"/>
      <point x="688" y="414" type="line"/>
      <point x="706" y="486" type="line"/>
      <point x="106" y="486" type="line"/>
    </contour>
  </outline>
</glyph>
<glyph name="endash.titl" format="2">
  <advance width="720"/>
  <outline>
    <contour>
      <point x="51" y="264" type="line"/>
      <point x="651" y="264" type="line"/>
      <point x="669" y="336" type="line"/>
      <point x="69" y="336" type="line"/>
    </contour>
  </outline>
</glyph>
<glyph name="equal.titl" format="2">
  <advance width="750"/>
  <outline>
    <contour>
      <point x="90" y="298" type="line"/>
      <point x="660" y="298" type="line"/>
      <point x="678" y="374" type="line"/>
      <point x="108" y="374" type="line"/>
    </contour>
    <contour>
      <point x="146" y="526" type="line"/>
      <point x="716" y="526" type="line"/>
      <point x="734" y="602" type="line"/>
      <point x="164" y="602" type="line"/>
    </contour>
  </outline>
</glyph>
<glyph name="greater.titl" format="2">
  <advance width="750"/>
  <outline>
    <contour>
      <point x="55" y="158" type="line"/>
      <point x="727" y="452" type="line"/>
      <point x="199" y="744" type="line"/>
      <point x="179" y="666" type="line"/>
      <point x="444" y="522" type="line" smooth="yes"/>
      <point x="485" y="499"/>
      <point x="535" y="478"/>
      <point x="579" y="459" type="curve"/>
      <point x="525" y="439"/>
      <point x="465" y="418"/>
      <point x="412" y="395" type="curve" smooth="yes"/>
      <point x="77" y="250" type="line"/>
    </contour>
  </outline>
</glyph>
<glyph name="h.hbar" format="2">
  <advance width="700"/>
  <anchor x="285" y="0" name="bottom"/>
  <anchor x="271" y="780" name="center"/>
  <anchor x="315" y="960" name="top"/>
  <outline>
    <contour>
      <point x="397" y="0" type="line"/>
      <point x="571" y="0" type="line"/>
      <point x="657" y="342" type="line" smooth="yes"/>
      <point x="692" y="482"/>
      <point x="631" y="620"/>
      <point x="469" y="620" type="curve" smooth="yes"/>
      <point x="351" y="620"/>
      <point x="237" y="538"/>
      <point x="195" y="367" type="curve"/>
      <point x="254" y="350" type="line"/>
      <point x="275" y="437"/>
      <point x="334" y="476"/>
      <point x="394" y="476" type="curve" smooth="yes"/>
      <point x="471" y="476"/>
      <point x="501" y="412"/>
      <point x="483" y="340" type="curve" smooth="yes"/>
    </contour>
    <contour>
      <point x="-9" y="0" type="line"/>
      <point x="165" y="0" type="line"/>
      <point x="268" y="406" type="line"/>
      <point x="263" y="440" type="line"/>
      <point x="393" y="960" type="line"/>
      <point x="231" y="960" type="line"/>
    </contour>
  </outline>
</glyph>
<glyph name="hookabovecomb.case" format="2">
  <anchor x="510" y="900" name="_top"/>
  <outline>
    <contour>
      <point x="471" y="978" type="curve"/>
      <point x="627" y="978" type="line"/>
      <point x="671" y="1016"/>
      <point x="701" y="1063"/>
      <point x="701" y="1113" type="curve" smooth="yes"/>
      <point x="701" y="1199"/>
      <point x="614" y="1240"/>
      <point x="533" y="1240" type="curve" smooth="yes"/>
      <point x="486" y="1240"/>
      <point x="444" y="1228"/>
      <point x="421" y="1214" type="curve"/>
      <point x="421" y="1074" type="line"/>
      <point x="439" y="1090"/>
      <point x="466" y="1104"/>
      <point x="493" y="1104" type="curve" smooth="yes"/>
      <point x="522" y="1104"/>
      <point x="538" y="1088"/>
      <point x="538" y="1067" type="curve" smooth="yes"/>
      <point x="538" y="1033"/>
      <point x="496" y="998"/>
    </contour>
  </outline>
</glyph>
<glyph name="hyphen.titl.case" format="2">
  <advance width="360"/>
  <outline>
    <contour>
      <point x="59" y="415" type="line"/>
      <point x="359" y="415" type="line"/>
      <point x="377" y="485" type="line"/>
      <point x="77" y="485" type="line"/>
    </contour>
  </outline>
</glyph>
<glyph name="macroncomb.narrow" format="2">
  <anchor x="435" y="600" name="_top"/>
  <outline>
    <contour>
      <point x="311" y="720" type="line"/>
      <point x="617" y="720" type="line"/>
      <point x="647" y="840" type="line"/>
      <point x="341" y="840" type="line"/>
    </contour>
  </outline>
</glyph>
<glyph name="minus.titl" format="2">
  <advance width="750"/>
  <outline>
    <contour>
      <point x="118" y="411" type="line"/>
      <point x="688" y="411" type="line"/>
      <point x="708" y="489" type="line"/>
      <point x="138" y="489" type="line"/>
    </contour>
  </outline>
</glyph>
<glyph name="nine.numr" format="2">
  <advance width="480"/>
  <outline>
    <contour>
      <point x="194" y="420" type="line"/>
      <point x="341" y="420" type="line"/>
      <point x="497" y="621" type="line" smooth="yes"/>
      <point x="530" y="662"/>
      <point x="547" y="707"/>
      <point x="547" y="750" type="curve" smooth="yes"/>
      <point x="547" y="843"/>
      <point x="467" y="918"/>
      <point x="366" y="918" type="curve" smooth="yes"/>
      <point x="252" y="918"/>
      <point x="148" y="823"/>
      <point x="148" y="717" type="curve" smooth="yes"/>
      <point x="148" y="631"/>
      <point x="223" y="556"/>
      <point x="310" y="556" type="curve" smooth="yes"/>
      <point x="336" y="556"/>
      <point x="354" y="562"/>
      <point x="376" y="579" type="curve"/>
      <point x="340" y="598" type="line"/>
    </contour>
    <contour>
      <point x="338" y="658" type="curve" smooth="yes"/>
      <point x="302" y="658"/>
      <point x="275" y="687"/>
      <point x="275" y="724" type="curve" smooth="yes"/>
      <point x="275" y="768"/>
      <point x="314" y="809"/>
      <point x="357" y="809" type="curve" smooth="yes"/>
      <point x="392" y="809"/>
      <point x="420" y="780"/>
      <point x="420" y="742" type="curve" smooth="yes"/>
      <point x="420" y="698"/>
      <point x="381" y="658"/>
    </contour>
  </outline>
</glyph>
<glyph name="one.numr" format="2">
  <advance width="480"/>
  <outline>
    <contour>
      <point x="341" y="735" type="line"/>
      <point x="324" y="751" type="line"/>
      <point x="241" y="420" type="line"/>
      <point x="379" y="420" type="line"/>
      <point x="507" y="932" type="line"/>
      <point x="223" y="806" type="line"/>
      <point x="188" y="668" type="line"/>
    </contour>
  </outline>
</glyph>
<glyph name="parenleft.titl" format="2">
  <advance width="480"/>
  <outline>
    <contour>
      <point x="177" y="-180" type="curve"/>
      <point x="261" y="-180" type="line"/>
      <point x="220" y="-79"/>
      <point x="198" y="34"/>
      <point x="198" y="152" type="curve" smooth="yes"/>
      <point x="198" y="422"/>
      <point x="311" y="731"/>
      <point x="550" y="960" type="curve"/>
      <point x="450" y="960" type="line"/>
      <point x="240" y="734"/>
      <point x="120" y="447"/>
      <point x="120" y="155" type="curve" smooth="yes"/>
      <point x="120" y="37"/>
      <point x="140" y="-76"/>
    </contour>
  </outline>
</glyph>
<glyph name="parenright.titl" format="2">
  <advance width="480"/>
  <outline>
    <contour>
      <point x="348" y="960" type="curve"/>
      <point x="264" y="960" type="line"/>
      <point x="305" y="859"/>
      <point x="327" y="746"/>
      <point x="327" y="628" type="curve" smooth="yes"/>
      <point x="327" y="358"/>
      <point x="214" y="49"/>
      <point x="-25" y="-180" type="curve"/>
      <point x="75" y="-180" type="line"/>
      <point x="285" y="46"/>
      <point x="405" y="333"/>
      <point x="405" y="625" type="curve" smooth="yes"/>
      <point x="405" y="743"/>
      <point x="385" y="856"/>
    </contour>
  </outline>
</glyph>
<glyph name="plus.titl" format="2">
  <advance width="750"/>
  <outline>
    <contour>
      <point x="294" y="135" type="line"/>
      <point x="376" y="135" type="line"/>
      <point x="532" y="765" type="line"/>
      <point x="450" y="765" type="line"/>
    </contour>
    <contour>
      <point x="88" y="411" type="line"/>
      <point x="718" y="411" type="line"/>
      <point x="738" y="489" type="line"/>
      <point x="108" y="489" type="line"/>
    </contour>
  </outline>
</glyph>
<glyph name="registered.lf" format="2">
  <advance width="1260"/>
  <outline>
    <contour>
      <point x="579" y="-192" type="curve" smooth="yes"/>
      <point x="906" y="-192"/>
      <point x="1202" y="102"/>
      <point x="1202" y="425" type="curve" smooth="yes"/>
      <point x="1202" y="700"/>
      <point x="988" y="912"/>
      <point x="709" y="912" type="curve" smooth="yes"/>
      <point x="382" y="912"/>
      <point x="86" y="618"/>
      <point x="86" y="295" type="curve" smooth="yes"/>
      <point x="86" y="20"/>
      <point x="300" y="-192"/>
    </contour>
    <contour>
      <point x="590" y="-60" type="curve" smooth="yes"/>
      <point x="383" y="-60"/>
      <point x="224" y="97"/>
      <point x="224" y="306" type="curve" smooth="yes"/>
      <point x="224" y="554"/>
      <point x="449" y="780"/>
      <point x="698" y="780" type="curve" smooth="yes"/>
      <point x="905" y="780"/>
      <point x="1064" y="623"/>
      <point x="1064" y="414" type="curve" smooth="yes"/>
      <point x="1064" y="166"/>
      <point x="839" y="-60"/>
    </contour>
    <contour>
      <point x="362" y="90" type="line"/>
      <point x="516" y="90" type="line"/>
      <point x="650" y="630" type="line"/>
      <point x="496" y="630" type="line"/>
    </contour>
    <contour>
      <point x="674" y="90" type="line"/>
      <point x="835" y="90" type="line"/>
      <point x="743" y="349" type="line"/>
      <point x="587" y="349" type="line"/>
    </contour>
    <contour>
      <point x="477" y="235" type="line"/>
      <point x="666" y="235" type="line" smooth="yes"/>
      <point x="788" y="235"/>
      <point x="898" y="339"/>
      <point x="898" y="455" type="curve" smooth="yes"/>
      <point x="898" y="554"/>
      <point x="817" y="630"/>
      <point x="713" y="630" type="curve" smooth="yes"/>
      <point x="574" y="630" type="line"/>
      <point x="544" y="505" type="line"/>
      <point x="667" y="505" type="line" smooth="yes"/>
      <point x="713" y="505"/>
      <point x="743" y="480"/>
      <point x="743" y="441" type="curve" smooth="yes"/>
      <point x="743" y="394"/>
      <point x="701" y="355"/>
      <point x="649" y="355" type="curve" smooth="yes"/>
      <point x="507" y="355" type="line"/>
    </contour>
  </outline>
</glyph>
<glyph name="seven.numr" format="2">
  <advance width="480"/>
  <outline>
    <contour>
      <point x="94" y="420" type="line"/>
      <point x="248" y="420" type="line"/>
      <point x="603" y="900" type="line"/>
      <point x="218" y="900" type="line"/>
      <point x="189" y="780" type="line"/>
      <point x="452" y="780" type="line"/>
      <point x="420" y="860" type="line"/>
    </contour>
  </outline>
</glyph>
<glyph name="t_t" format="2">
  <advance width="860"/>
  <outline>
    <contour>
      <point x="468" y="0" type="line"/>
      <point x="642" y="0" type="line"/>
      <point x="780" y="549" type="line"/>
      <point x="777" y="549" type="line"/>
      <point x="839" y="800" type="line"/>
      <point x="671" y="800" type="line"/>
      <point x="609" y="550" type="line"/>
      <point x="606" y="550" type="line"/>
    </contour>
    <contour>
      <point x="58" y="0" type="line"/>
      <point x="232" y="0" type="line"/>
      <point x="370" y="549" type="line"/>
      <point x="367" y="549" type="line"/>
      <point x="429" y="800" type="line"/>
      <point x="261" y="800" type="line"/>
      <point x="199" y="550" type="line"/>
      <point x="196" y="550" type="line"/>
    </contour>
    <contour>
      <point x="65" y="462" type="line"/>
      <point x="877" y="462" type="line"/>
      <point x="911" y="600" type="line"/>
      <point x="99" y="600" type="line"/>
    </contour>
  </outline>
</glyph>
<glyph name="tildecomb.case" format="2">
  <anchor x="510" y="900" name="_top"/>
  <outline>
    <contour>
      <point x="358" y="991" type="line"/>
      <point x="378" y="1035"/>
      <point x="411" y="1061"/>
      <point x="452" y="1061" type="curve" smooth="yes"/>
      <point x="518" y="1061"/>
      <point x="585" y="995"/>
      <point x="662" y="995" type="curve" smooth="yes"/>
      <point x="714" y="995"/>
      <point x="764" y="1025"/>
      <point x="791" y="1078" type="curve"/>
      <point x="757" y="1199" type="line"/>
      <point x="737" y="1155"/>
      <point x="705" y="1129"/>
      <point x="664" y="1129" type="curve" smooth="yes"/>
      <point x="598" y="1129"/>
      <point x="531" y="1195"/>
      <point x="454" y="1195" type="curve" smooth="yes"/>
      <point x="402" y="1195"/>
      <point x="352" y="1165"/>
      <point x="325" y="1112" type="curve"/>
    </contour>
  </outline>
</glyph>
<glyph name="tildecomb_macroncomb" format="2">
  <anchor x="435" y="600" name="_top"/>
  <outline>
    <contour>
      <point x="319" y="685" type="line"/>
      <point x="335" y="726"/>
      <point x="362" y="750"/>
      <point x="400" y="750" type="curve" smooth="yes"/>
      <point x="452" y="750"/>
      <point x="498" y="703"/>
      <point x="562" y="703" type="curve" smooth="yes"/>
      <point x="612" y="703"/>
      <point x="657" y="731"/>
      <point x="681" y="778" type="curve"/>
      <point x="643" y="886" type="line"/>
      <point x="627" y="846"/>
      <point x="600" y="823"/>
      <point x="562" y="823" type="curve" smooth="yes"/>
      <point x="510" y="823"/>
      <point x="464" y="870"/>
      <point x="400" y="870" type="curve" smooth="yes"/>
      <point x="350" y="870"/>
      <point x="305" y="843"/>
      <point x="281" y="795" type="curve"/>
    </contour>
    <contour>
      <point x="336" y="938" type="line"/>
      <point x="702" y="938" type="line"/>
      <point x="731" y="1058" type="line"/>
      <point x="365" y="1058" type="line"/>
    </contour>
  </outline>
</glyph>
<glyph name="two.numr" format="2">
  <advance width="480"/>
  <outline>
    <contour>
      <point x="77" y="420" type="line"/>
      <point x="467" y="420" type="line"/>
      <point x="495" y="534" type="line"/>
      <point x="392" y="534" type="line" smooth="yes"/>
      <point x="358" y="534"/>
      <point x="324" y="532"/>
      <point x="301" y="531" type="curve"/>
      <point x="303" y="510" type="line"/>
      <point x="356" y="541"/>
      <point x="389" y="568"/>
      <point x="425" y="598" type="curve" smooth="yes"/>
      <point x="483" y="646"/>
      <point x="525" y="695"/>
      <point x="525" y="763" type="curve" smooth="yes"/>
      <point x="525" y="846"/>
      <point x="458" y="918"/>
      <point x="358" y="918" type="curve" smooth="yes"/>
      <point x="245" y="918"/>
      <point x="158" y="827"/>
      <point x="158" y="727" type="curve" smooth="yes"/>
      <point x="158" y="722"/>
      <point x="158" y="712"/>
      <point x="163" y="690" type="curve"/>
      <point x="298" y="690" type="line"/>
      <point x="290" y="707"/>
      <point x="286" y="720"/>
      <point x="286" y="734" type="curve" smooth="yes"/>
      <point x="286" y="768"/>
      <point x="309" y="799"/>
      <point x="345" y="799" type="curve" smooth="yes"/>
      <point x="371" y="799"/>
      <point x="391" y="782"/>
      <point x="391" y="753" type="curve" smooth="yes"/>
      <point x="391" y="720"/>
      <point x="364" y="693"/>
      <point x="336" y="667" type="curve" smooth="yes"/>
    </contour>
  </outline>
</glyph>
<glyph name="underscore.titl" format="2">
  <advance width="720"/>
  <outline>
    <contour>
      <point x="-128" y="-189" type="line"/>
      <point x="604" y="-189" type="line"/>
      <point x="622" y="-117" type="line"/>
      <point x="-110" y="-117" type="line"/>
    </contour>
  </outline>
</glyph>
<glyph name="zero.numr" format="2">
  <advance width="480"/>
  <outline>
    <contour>
      <point x="291" y="408" type="curve" smooth="yes"/>
      <point x="426" y="408"/>
      <point x="540" y="552"/>
      <point x="540" y="722" type="curve" smooth="yes"/>
      <point x="540" y="838"/>
      <point x="474" y="912"/>
      <point x="371" y="912" type="curve" smooth="yes"/>
      <point x="237" y="912"/>
      <point x="121" y="767"/>
      <point x="121" y="600" type="curve" smooth="yes"/>
      <point x="121" y="484"/>
      <point x="189" y="408"/>
    </contour>
    <contour>
      <point x="303" y="528" type="curve" smooth="yes"/>
      <point x="272" y="528"/>
      <point x="252" y="557"/>
      <point x="252" y="601" type="curve" smooth="yes"/>
      <point x="252" y="697"/>
      <point x="304" y="792"/>
      <point x="356" y="792" type="curve" smooth="yes"/>
      <point x="391" y="792"/>
      <point x="408" y="768"/>
      <point x="408" y="720" type="curve" smooth="yes"/>
      <point x="408" y="624"/>
      <point x="355" y="528"/>
    </contour>
  </outline>
</glyph>
